<?xml version="1.0" standalone="no"?>
<!DOCTYPE svg PUBLIC "-//W3C//DTD SVG 20010904//EN"
 "http://www.w3.org/TR/2001/REC-SVG-20010904/DTD/svg10.dtd">
<svg version="1.0" xmlns="http://www.w3.org/2000/svg"
 width="700.000000pt" height="700.000000pt" viewBox="0 0 700.000000 700.000000"
 preserveAspectRatio="xMidYMid meet">
<metadata>
Created by potrace 1.11, written by Peter Selinger 2001-2013
</metadata>
<g transform="translate(0.000000,700.000000) scale(0.100000,-0.100000)"
fill="#000000" stroke="none">
<path d="M0 3500 l0 -3500 3500 0 3500 0 0 3500 0 3500 -3500 0 -3500 0 0
-3500z m4318 2088 c58 -118 75 -204 75 -368 0 -117 -4 -160 -21 -223 -87 -318
-336 -565 -652 -649 -121 -32 -320 -32 -439 0 -272 73 -482 249 -598 499 -74
159 -99 350 -69 521 16 93 62 227 91 270 l16 22 782 -2 782 -3 33 -67z m-1622
-1188 c223 -214 495 -324 804 -324 309 0 581 110 804 324 l83 80 375 0 375 0
60 -62 c157 -165 243 -357 268 -600 l7 -68 -1971 0 -1971 0 0 23 c0 12 7 65
15 117 31 204 117 380 258 528 l60 62 375 0 375 0 83 -80z m907 -1895 c176
-37 297 -163 297 -310 0 -199 -228 -349 -475 -314 -128 18 -246 91 -302 186
-38 65 -43 161 -13 231 30 70 120 153 197 182 111 42 188 48 296 25z"/>
</g>
</svg>
