<svg width="32" height="32" viewBox="0 0 32 32" fill="none" xmlns="http://www.w3.org/2000/svg">
<path d="M16 11.0388C19.014 11.0388 21.4574 8.59541 21.4574 5.5814C21.4574 2.56738 19.014 0.124039 16 0.124039C12.986 0.124039 10.5426 2.56738 10.5426 5.5814C10.5426 8.59541 12.986 11.0388 16 11.0388Z" fill="url(#paint0_linear)"/>
<path fill-rule="evenodd" clip-rule="evenodd" d="M9.72669 8.56657C6.58736 8.73275 4.09302 11.3309 4.09302 14.5116H27.907C27.907 11.3309 25.4126 8.73275 22.2733 8.56657C21.1568 10.9086 18.7674 12.5271 16 12.5271C13.2326 12.5271 10.8432 10.9086 9.72669 8.56657Z" fill="url(#paint1_linear)"/>
<path d="M0.454534 17.7627C0.282791 16.8467 0.985487 16 1.91742 16H30.0826C31.0145 16 31.7172 16.8467 31.5455 17.7627L29.1269 30.662C28.9948 31.3658 28.3803 31.8759 27.664 31.8759H4.33602C3.61978 31.8759 3.00512 31.3658 2.87314 30.662L0.454534 17.7627Z" fill="url(#paint2_linear)"/>
<path d="M15.9755 25.8232C17.332 25.8232 18.4317 24.957 18.4317 23.8884C18.4317 22.8198 17.332 21.9535 15.9755 21.9535C14.619 21.9535 13.5194 22.8198 13.5194 23.8884C13.5194 24.957 14.619 25.8232 15.9755 25.8232Z" fill="white"/>
<defs>
<linearGradient id="paint0_linear" x1="16" y1="0.124036" x2="16" y2="11.0388" gradientUnits="userSpaceOnUse">
<stop stop-color="#0088CC"/>
<stop offset="1" stop-color="#CEEFFF"/>
</linearGradient>
<linearGradient id="paint1_linear" x1="16" y1="8.56657" x2="16" y2="14.5116" gradientUnits="userSpaceOnUse">
<stop stop-color="#0088CC"/>
<stop offset="1" stop-color="#CEEFFF"/>
</linearGradient>
<linearGradient id="paint2_linear" x1="16" y1="16" x2="16" y2="31.8759" gradientUnits="userSpaceOnUse">
<stop stop-color="#0088CC"/>
<stop offset="1" stop-color="#006699"/>
</linearGradient>
</defs>
</svg>
