<svg fill="none" height="32" viewBox="0 0 32 32" width="32" xmlns="http://www.w3.org/2000/svg" xmlns:xlink="http://www.w3.org/1999/xlink"><linearGradient id="a"><stop offset="0" stop-color="#08c"/><stop offset="1" stop-color="#ceefff"/></linearGradient><linearGradient id="b" gradientUnits="userSpaceOnUse" x1="16" x2="16" xlink:href="#a" y1=".124036" y2="11.0388"/><linearGradient id="c" gradientUnits="userSpaceOnUse" x1="16" x2="16" xlink:href="#a" y1="8.56657" y2="14.5116"/><linearGradient id="d" gradientUnits="userSpaceOnUse" x1="16" x2="16" y1="16" y2="31.8759"><stop offset="0" stop-color="#08c"/><stop offset="1" stop-color="#069"/></linearGradient><path d="m16 11.0388c3.014 0 5.4574-2.44339 5.4574-5.4574 0-3.01402-2.4434-5.457361-5.4574-5.457361s-5.4574 2.443341-5.4574 5.457361c0 3.01401 2.4434 5.4574 5.4574 5.4574z" fill="url(#b)"/><path clip-rule="evenodd" d="m9.72669 8.56657c-3.13933.16618-5.63367 2.76433-5.63367 5.94503h23.81398c0-3.1807-2.4944-5.77885-5.6337-5.94503-1.1165 2.34203-3.5059 3.96053-6.2733 3.96053s-5.1568-1.6185-6.27331-3.96053z" fill="url(#c)" fill-rule="evenodd"/><path d="m.454534 17.7627c-.171743-.916.530953-1.7627 1.462886-1.7627h28.16518c.9319 0 1.6346.8467 1.4629 1.7627l-2.4186 12.8993c-.1321.7038-.7466 1.2139-1.4629 1.2139h-23.32798c-.71624 0-1.3309-.5101-1.46288-1.2139z" fill="url(#d)"/><path d="m15.9755 25.8232c1.3565 0 2.4562-.8662 2.4562-1.9348s-1.0997-1.9349-2.4562-1.9349-2.4561.8663-2.4561 1.9349 1.0996 1.9348 2.4561 1.9348z" fill="#fff"/></svg>