<svg clip-rule="evenodd" fill-rule="evenodd" stroke-linejoin="round" stroke-miterlimit="2" viewBox="0 0 256 256" xmlns="http://www.w3.org/2000/svg"><path d="m0 0h256v256h-256z"/><path d="m119.284 136.728h17.448v87.272h-17.448z" fill="#fff"/><path d="m154.191 171.591h17.448v52.342h-17.448z" fill="#fff"/><path d="m154.191 136.728h17.448v17.447h-17.448z" fill="#0f0"/><path d="m189.076 136.728h17.448v17.385h17.476v17.447h-17.476v34.895h17.476v17.447h-17.476v.098h-17.448z" fill="#fff"/><path d="m84.377 223.935v-.002h-34.929v.067h-17.448v-87.272h17.448v17.385h52.376v69.822zm-34.929-52.375v34.925h34.929v-34.925z" fill="#fff"/><path d="m32 171.656h17.448v52.344h-17.448z" fill="#0f0"/><path d="m154.175 84.375v17.45h69.797v17.447h-87.272v-17.447h.027v-17.45h-.027v-17.447h69.824v-17.48h-69.824v-17.448h87.272v52.375z" fill="#fff"/><path d="m206.538 32h17.448v52.344h-17.448z" fill="#0f0"/><path d="m32 119.272v-17.447h69.824v-17.45h-69.824v-17.447h69.824v-17.48h-69.824v-17.448h87.272v87.272z" fill="#fff"/></svg>