<svg clip-rule="evenodd" fill-rule="evenodd" stroke-linejoin="round" stroke-miterlimit="2" viewBox="0 0 300 300" xmlns="http://www.w3.org/2000/svg"><path d="m0 0h300v300h-300z"/><path d="m140.014 160.001h19.993v99.999h-19.993z" fill="#fff"/><path d="m180.011 199.948h19.993v59.975h-19.993z" fill="#fff"/><path d="m180.011 160.001h19.993v19.992h-19.993z" fill="#0f0"/><path d="m219.984 160.001h19.992v19.92h20.025v19.992h-20.025v39.983h20.025v19.992h-20.025v.112h-19.992z" fill="#fff"/><path d="m100.015 259.926v-.003h-40.022v.077h-19.993v-99.999h19.993v19.92h60.014v80.005zm-40.022-60.013v40.018h40.022v-40.018z" fill="#fff"/><path d="m40 200.022h19.993v59.978h-19.993z" fill="#0f0"/><path d="m179.993 100.013v19.994h79.976v19.992h-100v-19.992h.031v-19.994h-.031v-19.992h80.007v-20.029h-80.007v-19.992h100v60.013z" fill="#fff"/><path d="m239.992 40h19.993v59.978h-19.993z" fill="#0f0"/><path d="m40 139.999v-19.992h80.007v-19.994h-80.007v-19.992h80.007v-20.029h-80.007v-19.992h100v99.999z" fill="#fff"/></svg>