<?xml version="1.0" encoding="UTF-8" standalone="no"?><!DOCTYPE svg PUBLIC "-//W3C//DTD SVG 1.1//EN" "http://www.w3.org/Graphics/SVG/1.1/DTD/svg11.dtd"><svg width="100%" height="100%" viewBox="0 0 400 400" version="1.1" xmlns="http://www.w3.org/2000/svg" xmlns:xlink="http://www.w3.org/1999/xlink" xml:space="preserve" xmlns:serif="http://www.serif.com/" style="fill-rule:evenodd;clip-rule:evenodd;stroke-linejoin:round;stroke-miterlimit:2;"><rect id="background" x="0" y="0" width="400" height="400" style="fill:#222;"/><path d="M163.969,150.406c-4.116,-8.275 -5.791,-17.865 -4.236,-27.685l0.028,-0.189c4.841,-32.216 40.419,-63.537 47.294,-78.511c2.176,-4.8 7.357,-7.764 12.808,-6.9c5.517,0.873 9.559,5.39 10.068,10.712c2.074,16.471 25.971,56.988 20.712,88.982c-0.015,0.099 -0.03,0.198 -0.046,0.298c-1.555,9.819 -6.111,18.422 -12.583,25.02l0.005,0.006c6.598,-6.471 15.201,-11.027 25.019,-12.582l0.189,-0.032c32.136,-5.351 72.918,18.806 89.283,20.718c5.238,0.586 9.657,4.598 10.521,10.048c0.873,5.517 -2.173,10.758 -7.077,12.886c-15.024,7.062 -46.174,42.31 -78.227,47.196c-0.099,0.016 -0.198,0.032 -0.297,0.048c-9.812,1.554 -19.396,-0.117 -27.667,-4.227l-0.003,0.007c8.186,4.276 15.169,11.047 19.679,19.898l0.089,0.169c15.02,28.91 4.647,75.16 7.886,91.316c1.061,5.163 -1.389,10.605 -6.306,13.11c-4.976,2.536 -10.902,1.258 -14.441,-2.748c-11.36,-12.107 -54.508,-30.839 -69.06,-59.814c-0.046,-0.089 -0.092,-0.178 -0.137,-0.268c-4.513,-8.856 -5.884,-18.491 -4.528,-27.632l0,0l-0.008,-0.001c-1.534,9.111 -5.816,17.851 -12.844,24.878l-0.134,0.137c-22.853,23.218 -70.045,27.646 -84.409,35.718c-4.582,2.605 -10.515,1.957 -14.418,-1.945c-3.949,-3.95 -4.565,-9.98 -1.848,-14.584c8.004,-14.545 12.485,-61.37 35.545,-84.163c0.071,-0.071 0.142,-0.143 0.213,-0.214c7.025,-7.025 15.762,-11.307 24.87,-12.843l-0.001,-0.008c-9.137,1.353 -18.768,-0.019 -27.62,-4.529l-0.171,-0.085c-29.144,-14.56 -47.938,-58.074 -60.054,-69.241c-3.893,-3.553 -5.11,-9.396 -2.605,-14.313c2.536,-4.977 8.081,-7.426 13.299,-6.265c16.306,3.118 62.224,-7.089 91.028,7.798c0.089,0.045 0.179,0.091 0.269,0.136c8.858,4.514 15.633,11.506 19.908,19.702l0.007,-0.004Zm-15.105,100.881c-3.902,-3.902 0.216,-14.358 9.193,-23.334c8.976,-8.976 19.431,-13.095 23.334,-9.193c3.903,3.903 -0.216,14.359 -9.192,23.335c-8.976,8.976 -19.432,13.095 -23.335,9.192Zm72.339,11.458c-4.918,2.505 -13.589,-4.643 -19.352,-15.954c-5.763,-11.31 -6.449,-22.527 -1.532,-25.033c4.918,-2.505 13.589,4.643 19.352,15.953c5.763,11.311 6.449,22.528 1.532,25.034Zm-83.796,-83.797c2.505,-4.917 13.722,-4.231 25.033,1.532c11.31,5.763 18.459,14.434 15.953,19.352c-2.506,4.918 -13.722,4.231 -25.033,-1.532c-11.31,-5.763 -18.459,-14.434 -15.953,-19.352Zm117.046,18.539c0.864,5.451 -8.614,11.489 -21.152,13.475c-12.538,1.985 -23.418,-0.828 -24.281,-6.279c-0.864,-5.451 8.614,-11.489 21.152,-13.475c12.538,-1.986 23.418,0.828 24.281,6.279Zm-51.788,-51.789c5.451,0.863 8.264,11.743 6.278,24.281c-1.985,12.538 -8.023,22.016 -13.474,21.153c-5.452,-0.864 -8.265,-11.744 -6.279,-24.282c1.985,-12.537 8.023,-22.015 13.475,-21.152Z" style="fill:url(#_Linear1);"/><defs><linearGradient id="_Linear1" x1="0" y1="0" x2="1" y2="0" gradientUnits="userSpaceOnUse" gradientTransform="matrix(49.0988,-309.998,309.998,49.0988,170.763,347.118)"><stop offset="0" style="stop-color:#1aa1e6;stop-opacity:1"/><stop offset="1" style="stop-color:#32ffff;stop-opacity:1"/></linearGradient></defs></svg>