<svg clip-rule="evenodd" fill-rule="evenodd" stroke-linejoin="round" stroke-miterlimit="2" viewBox="0 0 400 400" xmlns="http://www.w3.org/2000/svg" xmlns:xlink="http://www.w3.org/1999/xlink"><linearGradient id="a" gradientTransform="matrix(49.0988 -309.998 309.998 49.0988 170.763 347.118)" gradientUnits="userSpaceOnUse" x1="0" x2="1" y1="0" y2="0"><stop offset="0" stop-color="#1aa1e6"/><stop offset="1" stop-color="#32ffff"/></linearGradient><path d="m0 0h400v400h-400z" fill="#303030"/><path d="m163.969 150.406c-4.116-8.275-5.791-17.865-4.236-27.685l.028-.189c4.841-32.216 40.419-63.537 47.294-78.511 2.176-4.8 7.357-7.764 12.808-6.9 5.517.873 9.559 5.39 10.068 10.712 2.074 16.471 25.971 56.988 20.712 88.982-.015.099-.03.198-.046.298-1.555 9.819-6.111 18.422-12.583 25.02l.005.006c6.598-6.471 15.201-11.027 25.019-12.582l.189-.032c32.136-5.351 72.918 18.806 89.283 20.718 5.238.586 9.657 4.598 10.521 10.048.873 5.517-2.173 10.758-7.077 12.886-15.024 7.062-46.174 42.31-78.227 47.196-.099.016-.198.032-.297.048-9.812 1.554-19.396-.117-27.667-4.227l-.003.007c8.186 4.276 15.169 11.047 19.679 19.898l.089.169c15.02 28.91 4.647 75.16 7.886 91.316 1.061 5.163-1.389 10.605-6.306 13.11-4.976 2.536-10.902 1.258-14.441-2.748-11.36-12.107-54.508-30.839-69.06-59.814-.046-.089-.092-.178-.137-.268-4.513-8.856-5.884-18.491-4.528-27.632l-.008-.001c-1.534 9.111-5.816 17.851-12.844 24.878l-.134.137c-22.853 23.218-70.045 27.646-84.409 35.718-4.582 2.605-10.515 1.957-14.418-1.945-3.949-3.95-4.565-9.98-1.848-14.584 8.004-14.545 12.485-61.37 35.545-84.163.071-.071.142-.143.213-.214 7.025-7.025 15.762-11.307 24.87-12.843l-.001-.008c-9.137 1.353-18.768-.019-27.62-4.529l-.171-.085c-29.144-14.56-47.938-58.074-60.054-69.241-3.893-3.553-5.11-9.396-2.605-14.313 2.536-4.977 8.081-7.426 13.299-6.265 16.306 3.118 62.224-7.089 91.028 7.798.089.045.179.091.269.136 8.858 4.514 15.633 11.506 19.908 19.702l.007-.004zm-15.105 100.881c-3.902-3.902.216-14.358 9.193-23.334 8.976-8.976 19.431-13.095 23.334-9.193 3.903 3.903-.216 14.359-9.192 23.335s-19.432 13.095-23.335 9.192zm72.339 11.458c-4.918 2.505-13.589-4.643-19.352-15.954-5.763-11.31-6.449-22.527-1.532-25.033 4.918-2.505 13.589 4.643 19.352 15.953 5.763 11.311 6.449 22.528 1.532 25.034zm-83.796-83.797c2.505-4.917 13.722-4.231 25.033 1.532 11.31 5.763 18.459 14.434 15.953 19.352s-13.722 4.231-25.033-1.532c-11.31-5.763-18.459-14.434-15.953-19.352zm117.046 18.539c.864 5.451-8.614 11.489-21.152 13.475-12.538 1.985-23.418-.828-24.281-6.279-.864-5.451 8.614-11.489 21.152-13.475s23.418.828 24.281 6.279zm-51.788-51.789c5.451.863 8.264 11.743 6.278 24.281-1.985 12.538-8.023 22.016-13.474 21.153-5.452-.864-8.265-11.744-6.279-24.282 1.985-12.537 8.023-22.015 13.475-21.152z" fill="url(#a)"/></svg>