<svg clip-rule="evenodd" fill-rule="evenodd" stroke-linejoin="round" stroke-miterlimit="2" viewBox="0 0 800 800" xmlns="http://www.w3.org/2000/svg" xmlns:xlink="http://www.w3.org/1999/xlink"><linearGradient id="a"><stop offset="0" stop-color="#08c"/><stop offset="1" stop-color="#ceefff"/></linearGradient><linearGradient id="b" gradientTransform="matrix(0 218.295 -218.295 0 400 82.4807)" gradientUnits="userSpaceOnUse" x1="0" x2="1" xlink:href="#a" y1="0" y2="0"/><linearGradient id="c" gradientTransform="matrix(0 118.901 -118.901 0 400 251.331)" gradientUnits="userSpaceOnUse" x1="0" x2="1" xlink:href="#a" y1="0" y2="0"/><linearGradient id="d" gradientTransform="matrix(0 317.518 -317.518 0 400 400)" gradientUnits="userSpaceOnUse" x1="0" x2="1" y1="0" y2="0"><stop offset="0" stop-color="#08c"/><stop offset="1" stop-color="#069"/></linearGradient><path d="m0 0h800v800h-800z" fill="#222"/><circle cx="400" cy="191.628" fill="url(#b)" r="109.147"/><path d="m274.534 251.331c-62.787 3.324-112.674 55.287-112.674 118.902h476.28c0-63.615-49.887-115.578-112.674-118.902-22.329 46.842-70.117 79.212-125.466 79.212-55.348 0-103.137-32.37-125.466-79.212z" fill="url(#c)"/><path d="m89.091 435.253c-3.435-18.319 10.619-35.253 29.257-35.253h563.304c18.638 0 32.692 16.934 29.258 35.253l-48.372 257.986c-2.642 14.076-14.932 24.279-29.258 24.279h-466.56c-14.324 0-26.618-10.203-29.257-24.279z" fill="url(#d)" fill-rule="nonzero"/><ellipse cx="399.51" cy="557.767" fill="#fff" rx="49.123" ry="38.698"/></svg>