<svg fill="none" height="420" viewBox="0 0 420 420" width="420" xmlns="http://www.w3.org/2000/svg"><path d="m0 0h420v420h-420z" fill="#202020"/><g stroke="#202020" stroke-width="3"><path d="m58 42h16v16h-16z" fill="#202020"/><path d="m42 42h16v16h-16z" fill="#202020"/><path d="m74 42h16v16h-16z" fill="#202020"/><path d="m90 42h16v16h-16z" fill="#202020"/><path d="m106 42h16v16h-16z" fill="#202020"/><path d="m122 42h16v16h-16z" fill="#202020"/><path d="m138 42h16v16h-16z" fill="#777"/><path d="m154 42h16v16h-16z" fill="#777"/><path d="m170 42h16v16h-16z" fill="#777"/><path d="m186 42h16v16h-16z" fill="#777"/><path d="m202 42h16v16h-16z" fill="#777"/><path d="m218 42h16v16h-16z" fill="#777"/><path d="m234 42h16v16h-16z" fill="#777"/><path d="m250 42h16v16h-16z" fill="#777"/><path d="m266 42h16v16h-16z" fill="#777"/><path d="m282 42h16v16h-16z" fill="#202020"/><path d="m298 42h16v16h-16z" fill="#202020"/><path d="m314 42h16v16h-16z" fill="#202020"/><path d="m330 42h16v16h-16z" fill="#202020"/><path d="m346 42h16v16h-16z" fill="#202020"/><path d="m362 42h16v16h-16z" fill="#202020"/><path d="m58 58h16v16h-16z" fill="#202020"/><path d="m42 58h16v16h-16z" fill="#202020"/><path d="m74 58h16v16h-16z" fill="#202020"/><path d="m90 58h16v16h-16z" fill="#202020"/><path d="m106 58h16v16h-16z" fill="#777"/><path d="m122 58h16v16h-16z" fill="#777"/><path d="m138 58h16v16h-16z" fill="#fff"/><path d="m154 58h16v16h-16z" fill="#fff"/><path d="m170 58h16v16h-16z" fill="#fff"/><path d="m186 58h16v16h-16z" fill="#fff"/><path d="m202 58h16v16h-16z" fill="#ccc"/><path d="m218 58h16v16h-16z" fill="#ccc"/><path d="m234 58h16v16h-16z" fill="#ccc"/><path d="m250 58h16v16h-16z" fill="#ccc"/><path d="m266 58h16v16h-16z" fill="#ccc"/><path d="m282 58h16v16h-16z" fill="#777"/><path d="m298 58h16v16h-16z" fill="#777"/><path d="m314 58h16v16h-16z" fill="#202020"/><path d="m330 58h16v16h-16z" fill="#202020"/><path d="m346 58h16v16h-16z" fill="#202020"/><path d="m362 58h16v16h-16z" fill="#202020"/><path d="m58 74h16v16h-16z" fill="#202020"/><path d="m42 74h16v16h-16z" fill="#202020"/><path d="m74 74h16v16h-16z" fill="#202020"/><path d="m90 74h16v16h-16z" fill="#777"/><path d="m106 74h16v16h-16z" fill="#fff"/><path d="m122 74h16v16h-16z" fill="#fff"/><path d="m138 74h16v16h-16z" fill="#fff"/><path d="m154 74h16v16h-16z" fill="#fff"/><path d="m170 74h16v16h-16z" fill="#fff"/><path d="m186 74h16v16h-16z" fill="#fff"/><path d="m202 74h16v16h-16z" fill="#fff"/><path d="m218 74h16v16h-16z" fill="#fff"/><path d="m234 74h16v16h-16z" fill="#fff"/><path d="m250 74h16v16h-16z" fill="#fff"/><path d="m266 74h16v16h-16z" fill="#ccc"/><path d="m282 74h16v16h-16z" fill="#ccc"/><path d="m298 74h16v16h-16z" fill="#ccc"/><path d="m314 74h16v16h-16z" fill="#777"/><path d="m330 74h16v16h-16z" fill="#202020"/><path d="m346 74h16v16h-16z" fill="#202020"/><path d="m362 74h16v16h-16z" fill="#202020"/><path d="m58 90h16v16h-16z" fill="#202020"/><path d="m42 90h16v16h-16z" fill="#202020"/><path d="m74 90h16v16h-16z" fill="#202020"/><path d="m90 90h16v16h-16z" fill="#777"/><path d="m106 90h16v16h-16z" fill="#fff"/><path d="m122 90h16v16h-16z" fill="#fff"/><path d="m138 90h16v16h-16z" fill="#fff"/><path d="m154 90h16v16h-16z" fill="#fff"/><path d="m170 90h16v16h-16z" fill="#fff"/><path d="m186 90h16v16h-16z" fill="#fff"/><path d="m202 90h16v16h-16z" fill="#fff"/><path d="m218 90h16v16h-16z" fill="#fff"/><path d="m234 90h16v16h-16z" fill="#fff"/><path d="m250 90h16v16h-16z" fill="#fff"/><path d="m266 90h16v16h-16z" fill="#fff"/><path d="m282 90h16v16h-16z" fill="#ccc"/><path d="m298 90h16v16h-16z" fill="#ccc"/><path d="m314 90h16v16h-16z" fill="#777"/><path d="m330 90h16v16h-16z" fill="#202020"/><path d="m346 90h16v16h-16z" fill="#202020"/><path d="m362 90h16v16h-16z" fill="#202020"/><path d="m58 106h16v16h-16z" fill="#202020"/><path d="m42 106h16v16h-16z" fill="#202020"/><path d="m74 106h16v16h-16z" fill="#777"/><path d="m90 106h16v16h-16z" fill="#fff"/><path d="m106 106h16v16h-16z" fill="#fff"/><path d="m122 106h16v16h-16z" fill="#fff"/><path d="m138 106h16v16h-16z" fill="#fff"/><path d="m154 106h16v16h-16z" fill="#fff"/><path d="m170 106h16v16h-16z" fill="#fff"/><path d="m186 106h16v16h-16z" fill="#fff"/><path d="m202 106h16v16h-16z" fill="#fff"/><path d="m218 106h16v16h-16z" fill="#fff"/><path d="m234 106h16v16h-16z" fill="#fff"/><path d="m250 106h16v16h-16z" fill="#fff"/><path d="m266 106h16v16h-16z" fill="#fff"/><path d="m282 106h16v16h-16z" fill="#fff"/><path d="m298 106h16v16h-16z" fill="#ccc"/><path d="m314 106h16v16h-16z" fill="#ccc"/><path d="m330 106h16v16h-16z" fill="#777"/><path d="m346 106h16v16h-16z" fill="#202020"/><path d="m362 106h16v16h-16z" fill="#202020"/><path d="m58 122h16v16h-16z" fill="#202020"/><path d="m42 122h16v16h-16z" fill="#202020"/><path d="m74 122h16v16h-16z" fill="#777"/><path d="m90 122h16v16h-16z" fill="#fff"/><path d="m106 122h16v16h-16z" fill="#fff"/><path d="m122 122h16v16h-16z" fill="#fff"/><path d="m138 122h16v16h-16z" fill="#fff"/><path d="m154 122h16v16h-16z" fill="#fff"/><path d="m170 122h16v16h-16z" fill="#fff"/><path d="m186 122h16v16h-16z" fill="#fff"/><path d="m202 122h16v16h-16z" fill="#fff"/><path d="m218 122h16v16h-16z" fill="#fff"/><path d="m234 122h16v16h-16z" fill="#fff"/><path d="m250 122h16v16h-16z" fill="#fff"/><path d="m266 122h16v16h-16z" fill="#fff"/><path d="m282 122h16v16h-16z" fill="#fff"/><path d="m298 122h16v16h-16z" fill="#ccc"/><path d="m314 122h16v16h-16z" fill="#ccc"/><path d="m330 122h16v16h-16z" fill="#777"/><path d="m346 122h16v16h-16z" fill="#202020"/><path d="m362 122h16v16h-16z" fill="#202020"/><path d="m58 138h16v16h-16z" fill="#202020"/><path d="m42 138h16v16h-16z" fill="#202020"/><path d="m74 138h16v16h-16z" fill="#777"/><path d="m90 138h16v16h-16z" fill="#000"/><path d="m106 138h16v16h-16z" fill="#000"/><path d="m122 138h16v16h-16z" fill="#000"/><path d="m138 138h16v16h-16z" fill="#000"/><path d="m154 138h16v16h-16z" fill="#000"/><path d="m170 138h16v16h-16z" fill="#000"/><path d="m186 138h16v16h-16z" fill="#000"/><path d="m202 138h16v16h-16z" fill="#000"/><path d="m218 138h16v16h-16z" fill="#000"/><path d="m234 138h16v16h-16z" fill="#000"/><path d="m250 138h16v16h-16z" fill="#000"/><path d="m266 138h16v16h-16z" fill="#000"/><path d="m282 138h16v16h-16z" fill="#000"/><path d="m298 138h16v16h-16z" fill="#000"/><path d="m314 138h16v16h-16z" fill="#000"/><path d="m330 138h16v16h-16z" fill="#777"/><path d="m346 138h16v16h-16z" fill="#202020"/><path d="m362 138h16v16h-16z" fill="#202020"/><path d="m58 154h16v16h-16z" fill="#202020"/><path d="m42 154h16v16h-16z" fill="#202020"/><path d="m74 154h16v16h-16z" fill="#777"/><path d="m90 154h16v16h-16z" fill="#ccc"/><path d="m106 154h16v16h-16z" fill="#ccc"/><path d="m122 154h16v16h-16z" fill="#ccc"/><path d="m138 154h16v16h-16z" fill="#ccc"/><path d="m154 154h16v16h-16z" fill="#ccc"/><path d="m170 154h16v16h-16z" fill="#ccc"/><path d="m186 154h16v16h-16z" fill="#ccc"/><path d="m202 154h16v16h-16z" fill="#ccc"/><path d="m218 154h16v16h-16z" fill="#ccc"/><path d="m234 154h16v16h-16z" fill="#ccc"/><path d="m250 154h16v16h-16z" fill="#ccc"/><path d="m266 154h16v16h-16z" fill="#ccc"/><path d="m282 154h16v16h-16z" fill="#ccc"/><path d="m298 154h16v16h-16z" fill="#ccc"/><path d="m314 154h16v16h-16z" fill="#ccc"/><path d="m330 154h16v16h-16z" fill="#777"/><path d="m346 154h16v16h-16z" fill="#202020"/><path d="m362 154h16v16h-16z" fill="#202020"/><path d="m58 170h16v16h-16z" fill="#202020"/><path d="m42 170h16v16h-16z" fill="#202020"/><path d="m74 170h16v16h-16z" fill="#777"/><path d="m90 170h16v16h-16z" fill="#fff"/><path d="m106 170h16v16h-16z" fill="#000"/><path d="m122 170h16v16h-16z" fill="#000"/><path d="m138 170h16v16h-16z" fill="#000"/><path d="m154 170h16v16h-16z" fill="#000"/><path d="m170 170h16v16h-16z" fill="#000"/><path d="m186 170h16v16h-16z" fill="#fff"/><path d="m202 170h16v16h-16z" fill="#fff"/><path d="m218 170h16v16h-16z" fill="#fff"/><path d="m234 170h16v16h-16z" fill="#000"/><path d="m250 170h16v16h-16z" fill="#000"/><path d="m266 170h16v16h-16z" fill="#000"/><path d="m282 170h16v16h-16z" fill="#000"/><path d="m298 170h16v16h-16z" fill="#000"/><path d="m314 170h16v16h-16z" fill="#fff"/><path d="m330 170h16v16h-16z" fill="#777"/><path d="m346 170h16v16h-16z" fill="#202020"/><path d="m362 170h16v16h-16z" fill="#202020"/><path d="m58 186h16v16h-16z" fill="#777"/><path d="m42 186h16v16h-16z" fill="#202020"/><path d="m74 186h16v16h-16z" fill="#fff"/><path d="m90 186h16v16h-16z" fill="#fff"/><path d="m106 186h16v16h-16z" fill="#000"/><path d="m122 186h16v16h-16z" fill="#000"/><path d="m138 186h16v16h-16z" fill="#000"/><path d="m154 186h16v16h-16z" fill="#fff"/><path d="m170 186h16v16h-16z" fill="#fff"/><path d="m186 186h16v16h-16z" fill="#fff"/><path d="m202 186h16v16h-16z" fill="#fff"/><path d="m218 186h16v16h-16z" fill="#fff"/><path d="m234 186h16v16h-16z" fill="#fff"/><path d="m250 186h16v16h-16z" fill="#fff"/><path d="m266 186h16v16h-16z" fill="#000"/><path d="m282 186h16v16h-16z" fill="#000"/><path d="m298 186h16v16h-16z" fill="#000"/><path d="m314 186h16v16h-16z" fill="#fff"/><path d="m330 186h16v16h-16z" fill="#fff"/><path d="m346 186h16v16h-16z" fill="#777"/><path d="m362 186h16v16h-16z" fill="#202020"/><path d="m58 202h16v16h-16z" fill="#777"/><path d="m42 202h16v16h-16z" fill="#202020"/><path d="m74 202h16v16h-16z" fill="#fff"/><path d="m90 202h16v16h-16z" fill="#aaa"/><path d="m106 202h16v16h-16z" fill="#fff"/><path d="m122 202h16v16h-16z" fill="#fff"/><path d="m138 202h16v16h-16z" fill="#fff"/><path d="m154 202h16v16h-16z" fill="#fff"/><path d="m170 202h16v16h-16z" fill="#fff"/><path d="m186 202h16v16h-16z" fill="#fff"/><path d="m202 202h16v16h-16z" fill="#fff"/><path d="m218 202h16v16h-16z" fill="#fff"/><path d="m234 202h16v16h-16z" fill="#fff"/><path d="m250 202h16v16h-16z" fill="#fff"/><path d="m266 202h16v16h-16z" fill="#fff"/><path d="m282 202h16v16h-16z" fill="#fff"/><path d="m298 202h16v16h-16z" fill="#fff"/><path d="m314 202h16v16h-16z" fill="#aaa"/><path d="m330 202h16v16h-16z" fill="#fff"/><path d="m346 202h16v16h-16z" fill="#777"/><path d="m362 202h16v16h-16z" fill="#202020"/><path d="m58 218h16v16h-16z" fill="#777"/><path d="m42 218h16v16h-16z" fill="#202020"/><path d="m74 218h16v16h-16z" fill="#fff"/><path d="m90 218h16v16h-16z" fill="#aaa"/><path d="m106 218h16v16h-16z" fill="#aaa"/><path d="m122 218h16v16h-16z" fill="#fff"/><path d="m138 218h16v16h-16z" fill="#fff"/><path d="m154 218h16v16h-16z" fill="#fff"/><path d="m170 218h16v16h-16z" fill="#fff"/><path d="m186 218h16v16h-16z" fill="#000"/><path d="m202 218h16v16h-16z" fill="#000"/><path d="m218 218h16v16h-16z" fill="#000"/><path d="m234 218h16v16h-16z" fill="#fff"/><path d="m250 218h16v16h-16z" fill="#fff"/><path d="m266 218h16v16h-16z" fill="#fff"/><path d="m282 218h16v16h-16z" fill="#fff"/><path d="m298 218h16v16h-16z" fill="#aaa"/><path d="m314 218h16v16h-16z" fill="#aaa"/><path d="m330 218h16v16h-16z" fill="#fff"/><path d="m346 218h16v16h-16z" fill="#777"/><path d="m362 218h16v16h-16z" fill="#202020"/><path d="m58 234h16v16h-16z" fill="#777"/><path d="m42 234h16v16h-16z" fill="#202020"/><path d="m74 234h16v16h-16z" fill="#fff"/><path d="m90 234h16v16h-16z" fill="#fff"/><path d="m106 234h16v16h-16z" fill="#aaa"/><path d="m122 234h16v16h-16z" fill="#fff"/><path d="m138 234h16v16h-16z" fill="#fff"/><path d="m154 234h16v16h-16z" fill="#fff"/><path d="m170 234h16v16h-16z" fill="#000"/><path d="m186 234h16v16h-16z" fill="#000"/><path d="m202 234h16v16h-16z" fill="#000"/><path d="m218 234h16v16h-16z" fill="#000"/><path d="m234 234h16v16h-16z" fill="#000"/><path d="m250 234h16v16h-16z" fill="#fff"/><path d="m266 234h16v16h-16z" fill="#fff"/><path d="m282 234h16v16h-16z" fill="#fff"/><path d="m298 234h16v16h-16z" fill="#aaa"/><path d="m314 234h16v16h-16z" fill="#fff"/><path d="m330 234h16v16h-16z" fill="#fff"/><path d="m346 234h16v16h-16z" fill="#777"/><path d="m362 234h16v16h-16z" fill="#202020"/><path d="m58 250h16v16h-16z" fill="#777"/><path d="m42 250h16v16h-16z" fill="#202020"/><path d="m74 250h16v16h-16z" fill="#777"/><path d="m90 250h16v16h-16z" fill="#ccc"/><path d="m106 250h16v16h-16z" fill="#fff"/><path d="m122 250h16v16h-16z" fill="#fff"/><path d="m138 250h16v16h-16z" fill="#fff"/><path d="m154 250h16v16h-16z" fill="#000"/><path d="m170 250h16v16h-16z" fill="#000"/><path d="m186 250h16v16h-16z" fill="#fff"/><path d="m202 250h16v16h-16z" fill="#fff"/><path d="m218 250h16v16h-16z" fill="#fff"/><path d="m234 250h16v16h-16z" fill="#000"/><path d="m250 250h16v16h-16z" fill="#000"/><path d="m266 250h16v16h-16z" fill="#fff"/><path d="m282 250h16v16h-16z" fill="#fff"/><path d="m298 250h16v16h-16z" fill="#fff"/><path d="m314 250h16v16h-16z" fill="#ccc"/><path d="m330 250h16v16h-16z" fill="#777"/><path d="m346 250h16v16h-16z" fill="#777"/><path d="m362 250h16v16h-16z" fill="#202020"/><path d="m58 266h16v16h-16z" fill="#aaa"/><path d="m42 266h16v16h-16z" fill="#777"/><path d="m74 266h16v16h-16z" fill="#aaa"/><path d="m90 266h16v16h-16z" fill="#fff"/><path d="m106 266h16v16h-16z" fill="#ccc"/><path d="m122 266h16v16h-16z" fill="#ccc"/><path d="m138 266h16v16h-16z" fill="#ccc"/><path d="m154 266h16v16h-16z" fill="#fff"/><path d="m170 266h16v16h-16z" fill="#fff"/><path d="m186 266h16v16h-16z" fill="#fff"/><path d="m202 266h16v16h-16z" fill="#fff"/><path d="m218 266h16v16h-16z" fill="#fff"/><path d="m234 266h16v16h-16z" fill="#fff"/><path d="m250 266h16v16h-16z" fill="#fff"/><path d="m266 266h16v16h-16z" fill="#ccc"/><path d="m282 266h16v16h-16z" fill="#ccc"/><path d="m298 266h16v16h-16z" fill="#ccc"/><path d="m314 266h16v16h-16z" fill="#fff"/><path d="m330 266h16v16h-16z" fill="#aaa"/><path d="m346 266h16v16h-16z" fill="#aaa"/><path d="m362 266h16v16h-16z" fill="#777"/><path d="m58 282h16v16h-16z" fill="#fff"/><path d="m42 282h16v16h-16z" fill="#777"/><path d="m74 282h16v16h-16z" fill="#fff"/><path d="m90 282h16v16h-16z" fill="#ccc"/><path d="m106 282h16v16h-16z" fill="#fff"/><path d="m122 282h16v16h-16z" fill="#fff"/><path d="m138 282h16v16h-16z" fill="#fff"/><path d="m154 282h16v16h-16z" fill="#ccc"/><path d="m170 282h16v16h-16z" fill="#fff"/><path d="m186 282h16v16h-16z" fill="#ccc"/><path d="m202 282h16v16h-16z" fill="#ccc"/><path d="m218 282h16v16h-16z" fill="#ccc"/><path d="m234 282h16v16h-16z" fill="#fff"/><path d="m250 282h16v16h-16z" fill="#ccc"/><path d="m266 282h16v16h-16z" fill="#fff"/><path d="m282 282h16v16h-16z" fill="#fff"/><path d="m298 282h16v16h-16z" fill="#fff"/><path d="m314 282h16v16h-16z" fill="#ccc"/><path d="m330 282h16v16h-16z" fill="#fff"/><path d="m346 282h16v16h-16z" fill="#fff"/><path d="m362 282h16v16h-16z" fill="#777"/><path d="m58 298h16v16h-16z" fill="#fff"/><path d="m42 298h16v16h-16z" fill="#777"/><path d="m74 298h16v16h-16z" fill="#ccc"/><path d="m90 298h16v16h-16z" fill="#fff"/><path d="m106 298h16v16h-16z" fill="#fff"/><path d="m122 298h16v16h-16z" fill="#fff"/><path d="m138 298h16v16h-16z" fill="#fff"/><path d="m154 298h16v16h-16z" fill="#ccc"/><path d="m170 298h16v16h-16z" fill="#ccc"/><path d="m186 298h16v16h-16z" fill="#ccc"/><path d="m202 298h16v16h-16z" fill="#000"/><path d="m218 298h16v16h-16z" fill="#ccc"/><path d="m234 298h16v16h-16z" fill="#ccc"/><path d="m250 298h16v16h-16z" fill="#ccc"/><path d="m266 298h16v16h-16z" fill="#fff"/><path d="m282 298h16v16h-16z" fill="#fff"/><path d="m298 298h16v16h-16z" fill="#fff"/><path d="m314 298h16v16h-16z" fill="#fff"/><path d="m330 298h16v16h-16z" fill="#ccc"/><path d="m346 298h16v16h-16z" fill="#fff"/><path d="m362 298h16v16h-16z" fill="#777"/><path d="m58 314h16v16h-16z" fill="#777"/><path d="m42 314h16v16h-16z" fill="#202020"/><path d="m74 314h16v16h-16z" fill="#ccc"/><path d="m90 314h16v16h-16z" fill="#fff"/><path d="m106 314h16v16h-16z" fill="#000"/><path d="m122 314h16v16h-16z" fill="#000"/><path d="m138 314h16v16h-16z" fill="#000"/><path d="m154 314h16v16h-16z" fill="#fff"/><path d="m170 314h16v16h-16z" fill="#ccc"/><path d="m186 314h16v16h-16z" fill="#000"/><path d="m202 314h16v16h-16z" fill="#000"/><path d="m218 314h16v16h-16z" fill="#000"/><path d="m234 314h16v16h-16z" fill="#ccc"/><path d="m250 314h16v16h-16z" fill="#fff"/><path d="m266 314h16v16h-16z" fill="#000"/><path d="m282 314h16v16h-16z" fill="#000"/><path d="m298 314h16v16h-16z" fill="#000"/><path d="m314 314h16v16h-16z" fill="#fff"/><path d="m330 314h16v16h-16z" fill="#ccc"/><path d="m346 314h16v16h-16z" fill="#777"/><path d="m362 314h16v16h-16z" fill="#202020"/><path d="m58 330h16v16h-16z" fill="#202020"/><path d="m42 330h16v16h-16z" fill="#202020"/><path d="m74 330h16v16h-16z" fill="#777"/><path d="m90 330h16v16h-16z" fill="#fff"/><path d="m106 330h16v16h-16z" fill="#000"/><path d="m122 330h16v16h-16z" fill="#aaa"/><path d="m138 330h16v16h-16z" fill="#000"/><path d="m154 330h16v16h-16z" fill="#fff"/><path d="m170 330h16v16h-16z" fill="#fff"/><path d="m186 330h16v16h-16z" fill="#000"/><path d="m202 330h16v16h-16z" fill="#000"/><path d="m218 330h16v16h-16z" fill="#000"/><path d="m234 330h16v16h-16z" fill="#fff"/><path d="m250 330h16v16h-16z" fill="#fff"/><path d="m266 330h16v16h-16z" fill="#000"/><path d="m282 330h16v16h-16z" fill="#aaa"/><path d="m298 330h16v16h-16z" fill="#000"/><path d="m314 330h16v16h-16z" fill="#fff"/><path d="m330 330h16v16h-16z" fill="#777"/><path d="m346 330h16v16h-16z" fill="#202020"/><path d="m362 330h16v16h-16z" fill="#202020"/><path d="m58 346h16v16h-16z" fill="#202020"/><path d="m42 346h16v16h-16z" fill="#202020"/><path d="m74 346h16v16h-16z" fill="#202020"/><path d="m90 346h16v16h-16z" fill="#777"/><path d="m106 346h16v16h-16z" fill="#fff"/><path d="m122 346h16v16h-16z" fill="#fff"/><path d="m138 346h16v16h-16z" fill="#fff"/><path d="m154 346h16v16h-16z" fill="#fff"/><path d="m170 346h16v16h-16z" fill="#777"/><path d="m186 346h16v16h-16z" fill="#777"/><path d="m202 346h16v16h-16z" fill="#777"/><path d="m218 346h16v16h-16z" fill="#777"/><path d="m234 346h16v16h-16z" fill="#777"/><path d="m250 346h16v16h-16z" fill="#fff"/><path d="m266 346h16v16h-16z" fill="#fff"/><path d="m282 346h16v16h-16z" fill="#fff"/><path d="m298 346h16v16h-16z" fill="#fff"/><path d="m314 346h16v16h-16z" fill="#777"/><path d="m330 346h16v16h-16z" fill="#202020"/><path d="m346 346h16v16h-16z" fill="#202020"/><path d="m362 346h16v16h-16z" fill="#202020"/><path d="m58 362h16v16h-16z" fill="#202020"/><path d="m42 362h16v16h-16z" fill="#202020"/><path d="m74 362h16v16h-16z" fill="#202020"/><path d="m90 362h16v16h-16z" fill="#202020"/><path d="m106 362h16v16h-16z" fill="#777"/><path d="m122 362h16v16h-16z" fill="#777"/><path d="m138 362h16v16h-16z" fill="#777"/><path d="m154 362h16v16h-16z" fill="#777"/><path d="m170 362h16v16h-16z" fill="#202020"/><path d="m186 362h16v16h-16z" fill="#202020"/><path d="m202 362h16v16h-16z" fill="#202020"/><path d="m218 362h16v16h-16z" fill="#202020"/><path d="m234 362h16v16h-16z" fill="#202020"/><path d="m250 362h16v16h-16z" fill="#777"/><path d="m266 362h16v16h-16z" fill="#777"/><path d="m282 362h16v16h-16z" fill="#777"/><path d="m298 362h16v16h-16z" fill="#777"/><path d="m314 362h16v16h-16z" fill="#202020"/><path d="m330 362h16v16h-16z" fill="#202020"/><path d="m346 362h16v16h-16z" fill="#202020"/><path d="m362 362h16v16h-16z" fill="#202020"/></g></svg>