<svg width="420" height="420" viewBox="0 0 420 420" fill="none" xmlns="http://www.w3.org/2000/svg">
<rect width="420" height="420" fill="#222222"/>
<rect x="58" y="42" width="16" height="16" fill="#222222" stroke="#222222" stroke-width="3"/>
<rect x="42" y="42" width="16" height="16" fill="#222222" stroke="#222222" stroke-width="3"/>
<rect x="74" y="42" width="16" height="16" fill="#222222" stroke="#222222" stroke-width="3"/>
<rect x="90" y="42" width="16" height="16" fill="#222222" stroke="#222222" stroke-width="3"/>
<rect x="106" y="42" width="16" height="16" fill="#222222" stroke="#222222" stroke-width="3"/>
<rect x="122" y="42" width="16" height="16" fill="#222222" stroke="#222222" stroke-width="3"/>
<rect x="138" y="42" width="16" height="16" fill="#777777" stroke="#222222" stroke-width="3"/>
<rect x="154" y="42" width="16" height="16" fill="#777777" stroke="#222222" stroke-width="3"/>
<rect x="170" y="42" width="16" height="16" fill="#777777" stroke="#222222" stroke-width="3"/>
<rect x="186" y="42" width="16" height="16" fill="#777777" stroke="#222222" stroke-width="3"/>
<rect x="202" y="42" width="16" height="16" fill="#777777" stroke="#222222" stroke-width="3"/>
<rect x="218" y="42" width="16" height="16" fill="#777777" stroke="#222222" stroke-width="3"/>
<rect x="234" y="42" width="16" height="16" fill="#777777" stroke="#222222" stroke-width="3"/>
<rect x="250" y="42" width="16" height="16" fill="#777777" stroke="#222222" stroke-width="3"/>
<rect x="266" y="42" width="16" height="16" fill="#777777" stroke="#222222" stroke-width="3"/>
<rect x="282" y="42" width="16" height="16" fill="#222222" stroke="#222222" stroke-width="3"/>
<rect x="298" y="42" width="16" height="16" fill="#222222" stroke="#222222" stroke-width="3"/>
<rect x="314" y="42" width="16" height="16" fill="#222222" stroke="#222222" stroke-width="3"/>
<rect x="330" y="42" width="16" height="16" fill="#222222" stroke="#222222" stroke-width="3"/>
<rect x="346" y="42" width="16" height="16" fill="#222222" stroke="#222222" stroke-width="3"/>
<rect x="362" y="42" width="16" height="16" fill="#222222" stroke="#222222" stroke-width="3"/>
<rect x="58" y="58" width="16" height="16" fill="#222222" stroke="#222222" stroke-width="3"/>
<rect x="42" y="58" width="16" height="16" fill="#222222" stroke="#222222" stroke-width="3"/>
<rect x="74" y="58" width="16" height="16" fill="#222222" stroke="#222222" stroke-width="3"/>
<rect x="90" y="58" width="16" height="16" fill="#222222" stroke="#222222" stroke-width="3"/>
<rect x="106" y="58" width="16" height="16" fill="#777777" stroke="#222222" stroke-width="3"/>
<rect x="122" y="58" width="16" height="16" fill="#777777" stroke="#222222" stroke-width="3"/>
<rect x="138" y="58" width="16" height="16" fill="white" stroke="#222222" stroke-width="3"/>
<rect x="154" y="58" width="16" height="16" fill="white" stroke="#222222" stroke-width="3"/>
<rect x="170" y="58" width="16" height="16" fill="white" stroke="#222222" stroke-width="3"/>
<rect x="186" y="58" width="16" height="16" fill="white" stroke="#222222" stroke-width="3"/>
<rect x="202" y="58" width="16" height="16" fill="#CCCCCC" stroke="#222222" stroke-width="3"/>
<rect x="218" y="58" width="16" height="16" fill="#CCCCCC" stroke="#222222" stroke-width="3"/>
<rect x="234" y="58" width="16" height="16" fill="#CCCCCC" stroke="#222222" stroke-width="3"/>
<rect x="250" y="58" width="16" height="16" fill="#CCCCCC" stroke="#222222" stroke-width="3"/>
<rect x="266" y="58" width="16" height="16" fill="#CCCCCC" stroke="#222222" stroke-width="3"/>
<rect x="282" y="58" width="16" height="16" fill="#777777" stroke="#222222" stroke-width="3"/>
<rect x="298" y="58" width="16" height="16" fill="#777777" stroke="#222222" stroke-width="3"/>
<rect x="314" y="58" width="16" height="16" fill="#222222" stroke="#222222" stroke-width="3"/>
<rect x="330" y="58" width="16" height="16" fill="#222222" stroke="#222222" stroke-width="3"/>
<rect x="346" y="58" width="16" height="16" fill="#222222" stroke="#222222" stroke-width="3"/>
<rect x="362" y="58" width="16" height="16" fill="#222222" stroke="#222222" stroke-width="3"/>
<rect x="58" y="74" width="16" height="16" fill="#222222" stroke="#222222" stroke-width="3"/>
<rect x="42" y="74" width="16" height="16" fill="#222222" stroke="#222222" stroke-width="3"/>
<rect x="74" y="74" width="16" height="16" fill="#222222" stroke="#222222" stroke-width="3"/>
<rect x="90" y="74" width="16" height="16" fill="#777777" stroke="#222222" stroke-width="3"/>
<rect x="106" y="74" width="16" height="16" fill="white" stroke="#222222" stroke-width="3"/>
<rect x="122" y="74" width="16" height="16" fill="white" stroke="#222222" stroke-width="3"/>
<rect x="138" y="74" width="16" height="16" fill="white" stroke="#222222" stroke-width="3"/>
<rect x="154" y="74" width="16" height="16" fill="white" stroke="#222222" stroke-width="3"/>
<rect x="170" y="74" width="16" height="16" fill="white" stroke="#222222" stroke-width="3"/>
<rect x="186" y="74" width="16" height="16" fill="white" stroke="#222222" stroke-width="3"/>
<rect x="202" y="74" width="16" height="16" fill="white" stroke="#222222" stroke-width="3"/>
<rect x="218" y="74" width="16" height="16" fill="white" stroke="#222222" stroke-width="3"/>
<rect x="234" y="74" width="16" height="16" fill="white" stroke="#222222" stroke-width="3"/>
<rect x="250" y="74" width="16" height="16" fill="white" stroke="#222222" stroke-width="3"/>
<rect x="266" y="74" width="16" height="16" fill="#CCCCCC" stroke="#222222" stroke-width="3"/>
<rect x="282" y="74" width="16" height="16" fill="#CCCCCC" stroke="#222222" stroke-width="3"/>
<rect x="298" y="74" width="16" height="16" fill="#CCCCCC" stroke="#222222" stroke-width="3"/>
<rect x="314" y="74" width="16" height="16" fill="#777777" stroke="#222222" stroke-width="3"/>
<rect x="330" y="74" width="16" height="16" fill="#222222" stroke="#222222" stroke-width="3"/>
<rect x="346" y="74" width="16" height="16" fill="#222222" stroke="#222222" stroke-width="3"/>
<rect x="362" y="74" width="16" height="16" fill="#222222" stroke="#222222" stroke-width="3"/>
<rect x="58" y="90" width="16" height="16" fill="#222222" stroke="#222222" stroke-width="3"/>
<rect x="42" y="90" width="16" height="16" fill="#222222" stroke="#222222" stroke-width="3"/>
<rect x="74" y="90" width="16" height="16" fill="#222222" stroke="#222222" stroke-width="3"/>
<rect x="90" y="90" width="16" height="16" fill="#777777" stroke="#222222" stroke-width="3"/>
<rect x="106" y="90" width="16" height="16" fill="white" stroke="#222222" stroke-width="3"/>
<rect x="122" y="90" width="16" height="16" fill="white" stroke="#222222" stroke-width="3"/>
<rect x="138" y="90" width="16" height="16" fill="white" stroke="#222222" stroke-width="3"/>
<rect x="154" y="90" width="16" height="16" fill="white" stroke="#222222" stroke-width="3"/>
<rect x="170" y="90" width="16" height="16" fill="white" stroke="#222222" stroke-width="3"/>
<rect x="186" y="90" width="16" height="16" fill="white" stroke="#222222" stroke-width="3"/>
<rect x="202" y="90" width="16" height="16" fill="white" stroke="#222222" stroke-width="3"/>
<rect x="218" y="90" width="16" height="16" fill="white" stroke="#222222" stroke-width="3"/>
<rect x="234" y="90" width="16" height="16" fill="white" stroke="#222222" stroke-width="3"/>
<rect x="250" y="90" width="16" height="16" fill="white" stroke="#222222" stroke-width="3"/>
<rect x="266" y="90" width="16" height="16" fill="white" stroke="#222222" stroke-width="3"/>
<rect x="282" y="90" width="16" height="16" fill="#CCCCCC" stroke="#222222" stroke-width="3"/>
<rect x="298" y="90" width="16" height="16" fill="#CCCCCC" stroke="#222222" stroke-width="3"/>
<rect x="314" y="90" width="16" height="16" fill="#777777" stroke="#222222" stroke-width="3"/>
<rect x="330" y="90" width="16" height="16" fill="#222222" stroke="#222222" stroke-width="3"/>
<rect x="346" y="90" width="16" height="16" fill="#222222" stroke="#222222" stroke-width="3"/>
<rect x="362" y="90" width="16" height="16" fill="#222222" stroke="#222222" stroke-width="3"/>
<rect x="58" y="106" width="16" height="16" fill="#222222" stroke="#222222" stroke-width="3"/>
<rect x="42" y="106" width="16" height="16" fill="#222222" stroke="#222222" stroke-width="3"/>
<rect x="74" y="106" width="16" height="16" fill="#777777" stroke="#222222" stroke-width="3"/>
<rect x="90" y="106" width="16" height="16" fill="white" stroke="#222222" stroke-width="3"/>
<rect x="106" y="106" width="16" height="16" fill="white" stroke="#222222" stroke-width="3"/>
<rect x="122" y="106" width="16" height="16" fill="white" stroke="#222222" stroke-width="3"/>
<rect x="138" y="106" width="16" height="16" fill="white" stroke="#222222" stroke-width="3"/>
<rect x="154" y="106" width="16" height="16" fill="white" stroke="#222222" stroke-width="3"/>
<rect x="170" y="106" width="16" height="16" fill="white" stroke="#222222" stroke-width="3"/>
<rect x="186" y="106" width="16" height="16" fill="white" stroke="#222222" stroke-width="3"/>
<rect x="202" y="106" width="16" height="16" fill="white" stroke="#222222" stroke-width="3"/>
<rect x="218" y="106" width="16" height="16" fill="white" stroke="#222222" stroke-width="3"/>
<rect x="234" y="106" width="16" height="16" fill="white" stroke="#222222" stroke-width="3"/>
<rect x="250" y="106" width="16" height="16" fill="white" stroke="#222222" stroke-width="3"/>
<rect x="266" y="106" width="16" height="16" fill="white" stroke="#222222" stroke-width="3"/>
<rect x="282" y="106" width="16" height="16" fill="white" stroke="#222222" stroke-width="3"/>
<rect x="298" y="106" width="16" height="16" fill="#CCCCCC" stroke="#222222" stroke-width="3"/>
<rect x="314" y="106" width="16" height="16" fill="#CCCCCC" stroke="#222222" stroke-width="3"/>
<rect x="330" y="106" width="16" height="16" fill="#777777" stroke="#222222" stroke-width="3"/>
<rect x="346" y="106" width="16" height="16" fill="#222222" stroke="#222222" stroke-width="3"/>
<rect x="362" y="106" width="16" height="16" fill="#222222" stroke="#222222" stroke-width="3"/>
<rect x="58" y="122" width="16" height="16" fill="#222222" stroke="#222222" stroke-width="3"/>
<rect x="42" y="122" width="16" height="16" fill="#222222" stroke="#222222" stroke-width="3"/>
<rect x="74" y="122" width="16" height="16" fill="#777777" stroke="#222222" stroke-width="3"/>
<rect x="90" y="122" width="16" height="16" fill="white" stroke="#222222" stroke-width="3"/>
<rect x="106" y="122" width="16" height="16" fill="white" stroke="#222222" stroke-width="3"/>
<rect x="122" y="122" width="16" height="16" fill="white" stroke="#222222" stroke-width="3"/>
<rect x="138" y="122" width="16" height="16" fill="white" stroke="#222222" stroke-width="3"/>
<rect x="154" y="122" width="16" height="16" fill="white" stroke="#222222" stroke-width="3"/>
<rect x="170" y="122" width="16" height="16" fill="white" stroke="#222222" stroke-width="3"/>
<rect x="186" y="122" width="16" height="16" fill="white" stroke="#222222" stroke-width="3"/>
<rect x="202" y="122" width="16" height="16" fill="white" stroke="#222222" stroke-width="3"/>
<rect x="218" y="122" width="16" height="16" fill="white" stroke="#222222" stroke-width="3"/>
<rect x="234" y="122" width="16" height="16" fill="white" stroke="#222222" stroke-width="3"/>
<rect x="250" y="122" width="16" height="16" fill="white" stroke="#222222" stroke-width="3"/>
<rect x="266" y="122" width="16" height="16" fill="white" stroke="#222222" stroke-width="3"/>
<rect x="282" y="122" width="16" height="16" fill="white" stroke="#222222" stroke-width="3"/>
<rect x="298" y="122" width="16" height="16" fill="#CCCCCC" stroke="#222222" stroke-width="3"/>
<rect x="314" y="122" width="16" height="16" fill="#CCCCCC" stroke="#222222" stroke-width="3"/>
<rect x="330" y="122" width="16" height="16" fill="#777777" stroke="#222222" stroke-width="3"/>
<rect x="346" y="122" width="16" height="16" fill="#222222" stroke="#222222" stroke-width="3"/>
<rect x="362" y="122" width="16" height="16" fill="#222222" stroke="#222222" stroke-width="3"/>
<rect x="58" y="138" width="16" height="16" fill="#222222" stroke="#222222" stroke-width="3"/>
<rect x="42" y="138" width="16" height="16" fill="#222222" stroke="#222222" stroke-width="3"/>
<rect x="74" y="138" width="16" height="16" fill="#777777" stroke="#222222" stroke-width="3"/>
<rect x="90" y="138" width="16" height="16" fill="black" stroke="#222222" stroke-width="3"/>
<rect x="106" y="138" width="16" height="16" fill="black" stroke="#222222" stroke-width="3"/>
<rect x="122" y="138" width="16" height="16" fill="black" stroke="#222222" stroke-width="3"/>
<rect x="138" y="138" width="16" height="16" fill="black" stroke="#222222" stroke-width="3"/>
<rect x="154" y="138" width="16" height="16" fill="black" stroke="#222222" stroke-width="3"/>
<rect x="170" y="138" width="16" height="16" fill="black" stroke="#222222" stroke-width="3"/>
<rect x="186" y="138" width="16" height="16" fill="black" stroke="#222222" stroke-width="3"/>
<rect x="202" y="138" width="16" height="16" fill="black" stroke="#222222" stroke-width="3"/>
<rect x="218" y="138" width="16" height="16" fill="black" stroke="#222222" stroke-width="3"/>
<rect x="234" y="138" width="16" height="16" fill="black" stroke="#222222" stroke-width="3"/>
<rect x="250" y="138" width="16" height="16" fill="black" stroke="#222222" stroke-width="3"/>
<rect x="266" y="138" width="16" height="16" fill="black" stroke="#222222" stroke-width="3"/>
<rect x="282" y="138" width="16" height="16" fill="black" stroke="#222222" stroke-width="3"/>
<rect x="298" y="138" width="16" height="16" fill="black" stroke="#222222" stroke-width="3"/>
<rect x="314" y="138" width="16" height="16" fill="black" stroke="#222222" stroke-width="3"/>
<rect x="330" y="138" width="16" height="16" fill="#777777" stroke="#222222" stroke-width="3"/>
<rect x="346" y="138" width="16" height="16" fill="#222222" stroke="#222222" stroke-width="3"/>
<rect x="362" y="138" width="16" height="16" fill="#222222" stroke="#222222" stroke-width="3"/>
<rect x="58" y="154" width="16" height="16" fill="#222222" stroke="#222222" stroke-width="3"/>
<rect x="42" y="154" width="16" height="16" fill="#222222" stroke="#222222" stroke-width="3"/>
<rect x="74" y="154" width="16" height="16" fill="#777777" stroke="#222222" stroke-width="3"/>
<rect x="90" y="154" width="16" height="16" fill="#CCCCCC" stroke="#222222" stroke-width="3"/>
<rect x="106" y="154" width="16" height="16" fill="#CCCCCC" stroke="#222222" stroke-width="3"/>
<rect x="122" y="154" width="16" height="16" fill="#CCCCCC" stroke="#222222" stroke-width="3"/>
<rect x="138" y="154" width="16" height="16" fill="#CCCCCC" stroke="#222222" stroke-width="3"/>
<rect x="154" y="154" width="16" height="16" fill="#CCCCCC" stroke="#222222" stroke-width="3"/>
<rect x="170" y="154" width="16" height="16" fill="#CCCCCC" stroke="#222222" stroke-width="3"/>
<rect x="186" y="154" width="16" height="16" fill="#CCCCCC" stroke="#222222" stroke-width="3"/>
<rect x="202" y="154" width="16" height="16" fill="#CCCCCC" stroke="#222222" stroke-width="3"/>
<rect x="218" y="154" width="16" height="16" fill="#CCCCCC" stroke="#222222" stroke-width="3"/>
<rect x="234" y="154" width="16" height="16" fill="#CCCCCC" stroke="#222222" stroke-width="3"/>
<rect x="250" y="154" width="16" height="16" fill="#CCCCCC" stroke="#222222" stroke-width="3"/>
<rect x="266" y="154" width="16" height="16" fill="#CCCCCC" stroke="#222222" stroke-width="3"/>
<rect x="282" y="154" width="16" height="16" fill="#CCCCCC" stroke="#222222" stroke-width="3"/>
<rect x="298" y="154" width="16" height="16" fill="#CCCCCC" stroke="#222222" stroke-width="3"/>
<rect x="314" y="154" width="16" height="16" fill="#CCCCCC" stroke="#222222" stroke-width="3"/>
<rect x="330" y="154" width="16" height="16" fill="#777777" stroke="#222222" stroke-width="3"/>
<rect x="346" y="154" width="16" height="16" fill="#222222" stroke="#222222" stroke-width="3"/>
<rect x="362" y="154" width="16" height="16" fill="#222222" stroke="#222222" stroke-width="3"/>
<rect x="58" y="170" width="16" height="16" fill="#222222" stroke="#222222" stroke-width="3"/>
<rect x="42" y="170" width="16" height="16" fill="#222222" stroke="#222222" stroke-width="3"/>
<rect x="74" y="170" width="16" height="16" fill="#777777" stroke="#222222" stroke-width="3"/>
<rect x="90" y="170" width="16" height="16" fill="white" stroke="#222222" stroke-width="3"/>
<rect x="106" y="170" width="16" height="16" fill="black" stroke="#222222" stroke-width="3"/>
<rect x="122" y="170" width="16" height="16" fill="black" stroke="#222222" stroke-width="3"/>
<rect x="138" y="170" width="16" height="16" fill="black" stroke="#222222" stroke-width="3"/>
<rect x="154" y="170" width="16" height="16" fill="black" stroke="#222222" stroke-width="3"/>
<rect x="170" y="170" width="16" height="16" fill="black" stroke="#222222" stroke-width="3"/>
<rect x="186" y="170" width="16" height="16" fill="white" stroke="#222222" stroke-width="3"/>
<rect x="202" y="170" width="16" height="16" fill="white" stroke="#222222" stroke-width="3"/>
<rect x="218" y="170" width="16" height="16" fill="white" stroke="#222222" stroke-width="3"/>
<rect x="234" y="170" width="16" height="16" fill="black" stroke="#222222" stroke-width="3"/>
<rect x="250" y="170" width="16" height="16" fill="black" stroke="#222222" stroke-width="3"/>
<rect x="266" y="170" width="16" height="16" fill="black" stroke="#222222" stroke-width="3"/>
<rect x="282" y="170" width="16" height="16" fill="black" stroke="#222222" stroke-width="3"/>
<rect x="298" y="170" width="16" height="16" fill="black" stroke="#222222" stroke-width="3"/>
<rect x="314" y="170" width="16" height="16" fill="white" stroke="#222222" stroke-width="3"/>
<rect x="330" y="170" width="16" height="16" fill="#777777" stroke="#222222" stroke-width="3"/>
<rect x="346" y="170" width="16" height="16" fill="#222222" stroke="#222222" stroke-width="3"/>
<rect x="362" y="170" width="16" height="16" fill="#222222" stroke="#222222" stroke-width="3"/>
<rect x="58" y="186" width="16" height="16" fill="#777777" stroke="#222222" stroke-width="3"/>
<rect x="42" y="186" width="16" height="16" fill="#222222" stroke="#222222" stroke-width="3"/>
<rect x="74" y="186" width="16" height="16" fill="white" stroke="#222222" stroke-width="3"/>
<rect x="90" y="186" width="16" height="16" fill="white" stroke="#222222" stroke-width="3"/>
<rect x="106" y="186" width="16" height="16" fill="black" stroke="#222222" stroke-width="3"/>
<rect x="122" y="186" width="16" height="16" fill="black" stroke="#222222" stroke-width="3"/>
<rect x="138" y="186" width="16" height="16" fill="black" stroke="#222222" stroke-width="3"/>
<rect x="154" y="186" width="16" height="16" fill="white" stroke="#222222" stroke-width="3"/>
<rect x="170" y="186" width="16" height="16" fill="white" stroke="#222222" stroke-width="3"/>
<rect x="186" y="186" width="16" height="16" fill="white" stroke="#222222" stroke-width="3"/>
<rect x="202" y="186" width="16" height="16" fill="white" stroke="#222222" stroke-width="3"/>
<rect x="218" y="186" width="16" height="16" fill="white" stroke="#222222" stroke-width="3"/>
<rect x="234" y="186" width="16" height="16" fill="white" stroke="#222222" stroke-width="3"/>
<rect x="250" y="186" width="16" height="16" fill="white" stroke="#222222" stroke-width="3"/>
<rect x="266" y="186" width="16" height="16" fill="black" stroke="#222222" stroke-width="3"/>
<rect x="282" y="186" width="16" height="16" fill="black" stroke="#222222" stroke-width="3"/>
<rect x="298" y="186" width="16" height="16" fill="black" stroke="#222222" stroke-width="3"/>
<rect x="314" y="186" width="16" height="16" fill="white" stroke="#222222" stroke-width="3"/>
<rect x="330" y="186" width="16" height="16" fill="white" stroke="#222222" stroke-width="3"/>
<rect x="346" y="186" width="16" height="16" fill="#777777" stroke="#222222" stroke-width="3"/>
<rect x="362" y="186" width="16" height="16" fill="#222222" stroke="#222222" stroke-width="3"/>
<rect x="58" y="202" width="16" height="16" fill="#777777" stroke="#222222" stroke-width="3"/>
<rect x="42" y="202" width="16" height="16" fill="#222222" stroke="#222222" stroke-width="3"/>
<rect x="74" y="202" width="16" height="16" fill="white" stroke="#222222" stroke-width="3"/>
<rect x="90" y="202" width="16" height="16" fill="#AAAAAA" stroke="#222222" stroke-width="3"/>
<rect x="106" y="202" width="16" height="16" fill="white" stroke="#222222" stroke-width="3"/>
<rect x="122" y="202" width="16" height="16" fill="white" stroke="#222222" stroke-width="3"/>
<rect x="138" y="202" width="16" height="16" fill="white" stroke="#222222" stroke-width="3"/>
<rect x="154" y="202" width="16" height="16" fill="white" stroke="#222222" stroke-width="3"/>
<rect x="170" y="202" width="16" height="16" fill="white" stroke="#222222" stroke-width="3"/>
<rect x="186" y="202" width="16" height="16" fill="white" stroke="#222222" stroke-width="3"/>
<rect x="202" y="202" width="16" height="16" fill="white" stroke="#222222" stroke-width="3"/>
<rect x="218" y="202" width="16" height="16" fill="white" stroke="#222222" stroke-width="3"/>
<rect x="234" y="202" width="16" height="16" fill="white" stroke="#222222" stroke-width="3"/>
<rect x="250" y="202" width="16" height="16" fill="white" stroke="#222222" stroke-width="3"/>
<rect x="266" y="202" width="16" height="16" fill="white" stroke="#222222" stroke-width="3"/>
<rect x="282" y="202" width="16" height="16" fill="white" stroke="#222222" stroke-width="3"/>
<rect x="298" y="202" width="16" height="16" fill="white" stroke="#222222" stroke-width="3"/>
<rect x="314" y="202" width="16" height="16" fill="#AAAAAA" stroke="#222222" stroke-width="3"/>
<rect x="330" y="202" width="16" height="16" fill="white" stroke="#222222" stroke-width="3"/>
<rect x="346" y="202" width="16" height="16" fill="#777777" stroke="#222222" stroke-width="3"/>
<rect x="362" y="202" width="16" height="16" fill="#222222" stroke="#222222" stroke-width="3"/>
<rect x="58" y="218" width="16" height="16" fill="#777777" stroke="#222222" stroke-width="3"/>
<rect x="42" y="218" width="16" height="16" fill="#222222" stroke="#222222" stroke-width="3"/>
<rect x="74" y="218" width="16" height="16" fill="white" stroke="#222222" stroke-width="3"/>
<rect x="90" y="218" width="16" height="16" fill="#AAAAAA" stroke="#222222" stroke-width="3"/>
<rect x="106" y="218" width="16" height="16" fill="#AAAAAA" stroke="#222222" stroke-width="3"/>
<rect x="122" y="218" width="16" height="16" fill="white" stroke="#222222" stroke-width="3"/>
<rect x="138" y="218" width="16" height="16" fill="white" stroke="#222222" stroke-width="3"/>
<rect x="154" y="218" width="16" height="16" fill="white" stroke="#222222" stroke-width="3"/>
<rect x="170" y="218" width="16" height="16" fill="white" stroke="#222222" stroke-width="3"/>
<rect x="186" y="218" width="16" height="16" fill="black" stroke="#222222" stroke-width="3"/>
<rect x="202" y="218" width="16" height="16" fill="black" stroke="#222222" stroke-width="3"/>
<rect x="218" y="218" width="16" height="16" fill="black" stroke="#222222" stroke-width="3"/>
<rect x="234" y="218" width="16" height="16" fill="white" stroke="#222222" stroke-width="3"/>
<rect x="250" y="218" width="16" height="16" fill="white" stroke="#222222" stroke-width="3"/>
<rect x="266" y="218" width="16" height="16" fill="white" stroke="#222222" stroke-width="3"/>
<rect x="282" y="218" width="16" height="16" fill="white" stroke="#222222" stroke-width="3"/>
<rect x="298" y="218" width="16" height="16" fill="#AAAAAA" stroke="#222222" stroke-width="3"/>
<rect x="314" y="218" width="16" height="16" fill="#AAAAAA" stroke="#222222" stroke-width="3"/>
<rect x="330" y="218" width="16" height="16" fill="white" stroke="#222222" stroke-width="3"/>
<rect x="346" y="218" width="16" height="16" fill="#777777" stroke="#222222" stroke-width="3"/>
<rect x="362" y="218" width="16" height="16" fill="#222222" stroke="#222222" stroke-width="3"/>
<rect x="58" y="234" width="16" height="16" fill="#777777" stroke="#222222" stroke-width="3"/>
<rect x="42" y="234" width="16" height="16" fill="#222222" stroke="#222222" stroke-width="3"/>
<rect x="74" y="234" width="16" height="16" fill="white" stroke="#222222" stroke-width="3"/>
<rect x="90" y="234" width="16" height="16" fill="white" stroke="#222222" stroke-width="3"/>
<rect x="106" y="234" width="16" height="16" fill="#AAAAAA" stroke="#222222" stroke-width="3"/>
<rect x="122" y="234" width="16" height="16" fill="white" stroke="#222222" stroke-width="3"/>
<rect x="138" y="234" width="16" height="16" fill="white" stroke="#222222" stroke-width="3"/>
<rect x="154" y="234" width="16" height="16" fill="white" stroke="#222222" stroke-width="3"/>
<rect x="170" y="234" width="16" height="16" fill="black" stroke="#222222" stroke-width="3"/>
<rect x="186" y="234" width="16" height="16" fill="black" stroke="#222222" stroke-width="3"/>
<rect x="202" y="234" width="16" height="16" fill="black" stroke="#222222" stroke-width="3"/>
<rect x="218" y="234" width="16" height="16" fill="black" stroke="#222222" stroke-width="3"/>
<rect x="234" y="234" width="16" height="16" fill="black" stroke="#222222" stroke-width="3"/>
<rect x="250" y="234" width="16" height="16" fill="white" stroke="#222222" stroke-width="3"/>
<rect x="266" y="234" width="16" height="16" fill="white" stroke="#222222" stroke-width="3"/>
<rect x="282" y="234" width="16" height="16" fill="white" stroke="#222222" stroke-width="3"/>
<rect x="298" y="234" width="16" height="16" fill="#AAAAAA" stroke="#222222" stroke-width="3"/>
<rect x="314" y="234" width="16" height="16" fill="white" stroke="#222222" stroke-width="3"/>
<rect x="330" y="234" width="16" height="16" fill="white" stroke="#222222" stroke-width="3"/>
<rect x="346" y="234" width="16" height="16" fill="#777777" stroke="#222222" stroke-width="3"/>
<rect x="362" y="234" width="16" height="16" fill="#222222" stroke="#222222" stroke-width="3"/>
<rect x="58" y="250" width="16" height="16" fill="#777777" stroke="#222222" stroke-width="3"/>
<rect x="42" y="250" width="16" height="16" fill="#222222" stroke="#222222" stroke-width="3"/>
<rect x="74" y="250" width="16" height="16" fill="#777777" stroke="#222222" stroke-width="3"/>
<rect x="90" y="250" width="16" height="16" fill="#CCCCCC" stroke="#222222" stroke-width="3"/>
<rect x="106" y="250" width="16" height="16" fill="white" stroke="#222222" stroke-width="3"/>
<rect x="122" y="250" width="16" height="16" fill="white" stroke="#222222" stroke-width="3"/>
<rect x="138" y="250" width="16" height="16" fill="white" stroke="#222222" stroke-width="3"/>
<rect x="154" y="250" width="16" height="16" fill="black" stroke="#222222" stroke-width="3"/>
<rect x="170" y="250" width="16" height="16" fill="black" stroke="#222222" stroke-width="3"/>
<rect x="186" y="250" width="16" height="16" fill="white" stroke="#222222" stroke-width="3"/>
<rect x="202" y="250" width="16" height="16" fill="white" stroke="#222222" stroke-width="3"/>
<rect x="218" y="250" width="16" height="16" fill="white" stroke="#222222" stroke-width="3"/>
<rect x="234" y="250" width="16" height="16" fill="black" stroke="#222222" stroke-width="3"/>
<rect x="250" y="250" width="16" height="16" fill="black" stroke="#222222" stroke-width="3"/>
<rect x="266" y="250" width="16" height="16" fill="white" stroke="#222222" stroke-width="3"/>
<rect x="282" y="250" width="16" height="16" fill="white" stroke="#222222" stroke-width="3"/>
<rect x="298" y="250" width="16" height="16" fill="white" stroke="#222222" stroke-width="3"/>
<rect x="314" y="250" width="16" height="16" fill="#CCCCCC" stroke="#222222" stroke-width="3"/>
<rect x="330" y="250" width="16" height="16" fill="#777777" stroke="#222222" stroke-width="3"/>
<rect x="346" y="250" width="16" height="16" fill="#777777" stroke="#222222" stroke-width="3"/>
<rect x="362" y="250" width="16" height="16" fill="#222222" stroke="#222222" stroke-width="3"/>
<rect x="58" y="266" width="16" height="16" fill="#AAAAAA" stroke="#222222" stroke-width="3"/>
<rect x="42" y="266" width="16" height="16" fill="#777777" stroke="#222222" stroke-width="3"/>
<rect x="74" y="266" width="16" height="16" fill="#AAAAAA" stroke="#222222" stroke-width="3"/>
<rect x="90" y="266" width="16" height="16" fill="white" stroke="#222222" stroke-width="3"/>
<rect x="106" y="266" width="16" height="16" fill="#CCCCCC" stroke="#222222" stroke-width="3"/>
<rect x="122" y="266" width="16" height="16" fill="#CCCCCC" stroke="#222222" stroke-width="3"/>
<rect x="138" y="266" width="16" height="16" fill="#CCCCCC" stroke="#222222" stroke-width="3"/>
<rect x="154" y="266" width="16" height="16" fill="white" stroke="#222222" stroke-width="3"/>
<rect x="170" y="266" width="16" height="16" fill="white" stroke="#222222" stroke-width="3"/>
<rect x="186" y="266" width="16" height="16" fill="white" stroke="#222222" stroke-width="3"/>
<rect x="202" y="266" width="16" height="16" fill="white" stroke="#222222" stroke-width="3"/>
<rect x="218" y="266" width="16" height="16" fill="white" stroke="#222222" stroke-width="3"/>
<rect x="234" y="266" width="16" height="16" fill="white" stroke="#222222" stroke-width="3"/>
<rect x="250" y="266" width="16" height="16" fill="white" stroke="#222222" stroke-width="3"/>
<rect x="266" y="266" width="16" height="16" fill="#CCCCCC" stroke="#222222" stroke-width="3"/>
<rect x="282" y="266" width="16" height="16" fill="#CCCCCC" stroke="#222222" stroke-width="3"/>
<rect x="298" y="266" width="16" height="16" fill="#CCCCCC" stroke="#222222" stroke-width="3"/>
<rect x="314" y="266" width="16" height="16" fill="white" stroke="#222222" stroke-width="3"/>
<rect x="330" y="266" width="16" height="16" fill="#AAAAAA" stroke="#222222" stroke-width="3"/>
<rect x="346" y="266" width="16" height="16" fill="#AAAAAA" stroke="#222222" stroke-width="3"/>
<rect x="362" y="266" width="16" height="16" fill="#777777" stroke="#222222" stroke-width="3"/>
<rect x="58" y="282" width="16" height="16" fill="white" stroke="#222222" stroke-width="3"/>
<rect x="42" y="282" width="16" height="16" fill="#777777" stroke="#222222" stroke-width="3"/>
<rect x="74" y="282" width="16" height="16" fill="white" stroke="#222222" stroke-width="3"/>
<rect x="90" y="282" width="16" height="16" fill="#CCCCCC" stroke="#222222" stroke-width="3"/>
<rect x="106" y="282" width="16" height="16" fill="white" stroke="#222222" stroke-width="3"/>
<rect x="122" y="282" width="16" height="16" fill="white" stroke="#222222" stroke-width="3"/>
<rect x="138" y="282" width="16" height="16" fill="white" stroke="#222222" stroke-width="3"/>
<rect x="154" y="282" width="16" height="16" fill="#CCCCCC" stroke="#222222" stroke-width="3"/>
<rect x="170" y="282" width="16" height="16" fill="white" stroke="#222222" stroke-width="3"/>
<rect x="186" y="282" width="16" height="16" fill="#CCCCCC" stroke="#222222" stroke-width="3"/>
<rect x="202" y="282" width="16" height="16" fill="#CCCCCC" stroke="#222222" stroke-width="3"/>
<rect x="218" y="282" width="16" height="16" fill="#CCCCCC" stroke="#222222" stroke-width="3"/>
<rect x="234" y="282" width="16" height="16" fill="white" stroke="#222222" stroke-width="3"/>
<rect x="250" y="282" width="16" height="16" fill="#CCCCCC" stroke="#222222" stroke-width="3"/>
<rect x="266" y="282" width="16" height="16" fill="white" stroke="#222222" stroke-width="3"/>
<rect x="282" y="282" width="16" height="16" fill="white" stroke="#222222" stroke-width="3"/>
<rect x="298" y="282" width="16" height="16" fill="white" stroke="#222222" stroke-width="3"/>
<rect x="314" y="282" width="16" height="16" fill="#CCCCCC" stroke="#222222" stroke-width="3"/>
<rect x="330" y="282" width="16" height="16" fill="white" stroke="#222222" stroke-width="3"/>
<rect x="346" y="282" width="16" height="16" fill="white" stroke="#222222" stroke-width="3"/>
<rect x="362" y="282" width="16" height="16" fill="#777777" stroke="#222222" stroke-width="3"/>
<rect x="58" y="298" width="16" height="16" fill="white" stroke="#222222" stroke-width="3"/>
<rect x="42" y="298" width="16" height="16" fill="#777777" stroke="#222222" stroke-width="3"/>
<rect x="74" y="298" width="16" height="16" fill="#CCCCCC" stroke="#222222" stroke-width="3"/>
<rect x="90" y="298" width="16" height="16" fill="white" stroke="#222222" stroke-width="3"/>
<rect x="106" y="298" width="16" height="16" fill="white" stroke="#222222" stroke-width="3"/>
<rect x="122" y="298" width="16" height="16" fill="white" stroke="#222222" stroke-width="3"/>
<rect x="138" y="298" width="16" height="16" fill="white" stroke="#222222" stroke-width="3"/>
<rect x="154" y="298" width="16" height="16" fill="#CCCCCC" stroke="#222222" stroke-width="3"/>
<rect x="170" y="298" width="16" height="16" fill="#CCCCCC" stroke="#222222" stroke-width="3"/>
<rect x="186" y="298" width="16" height="16" fill="#CCCCCC" stroke="#222222" stroke-width="3"/>
<rect x="202" y="298" width="16" height="16" fill="black" stroke="#222222" stroke-width="3"/>
<rect x="218" y="298" width="16" height="16" fill="#CCCCCC" stroke="#222222" stroke-width="3"/>
<rect x="234" y="298" width="16" height="16" fill="#CCCCCC" stroke="#222222" stroke-width="3"/>
<rect x="250" y="298" width="16" height="16" fill="#CCCCCC" stroke="#222222" stroke-width="3"/>
<rect x="266" y="298" width="16" height="16" fill="white" stroke="#222222" stroke-width="3"/>
<rect x="282" y="298" width="16" height="16" fill="white" stroke="#222222" stroke-width="3"/>
<rect x="298" y="298" width="16" height="16" fill="white" stroke="#222222" stroke-width="3"/>
<rect x="314" y="298" width="16" height="16" fill="white" stroke="#222222" stroke-width="3"/>
<rect x="330" y="298" width="16" height="16" fill="#CCCCCC" stroke="#222222" stroke-width="3"/>
<rect x="346" y="298" width="16" height="16" fill="white" stroke="#222222" stroke-width="3"/>
<rect x="362" y="298" width="16" height="16" fill="#777777" stroke="#222222" stroke-width="3"/>
<rect x="58" y="314" width="16" height="16" fill="#777777" stroke="#222222" stroke-width="3"/>
<rect x="42" y="314" width="16" height="16" fill="#222222" stroke="#222222" stroke-width="3"/>
<rect x="74" y="314" width="16" height="16" fill="#CCCCCC" stroke="#222222" stroke-width="3"/>
<rect x="90" y="314" width="16" height="16" fill="white" stroke="#222222" stroke-width="3"/>
<rect x="106" y="314" width="16" height="16" fill="black" stroke="#222222" stroke-width="3"/>
<rect x="122" y="314" width="16" height="16" fill="black" stroke="#222222" stroke-width="3"/>
<rect x="138" y="314" width="16" height="16" fill="black" stroke="#222222" stroke-width="3"/>
<rect x="154" y="314" width="16" height="16" fill="white" stroke="#222222" stroke-width="3"/>
<rect x="170" y="314" width="16" height="16" fill="#CCCCCC" stroke="#222222" stroke-width="3"/>
<rect x="186" y="314" width="16" height="16" fill="black" stroke="#222222" stroke-width="3"/>
<rect x="202" y="314" width="16" height="16" fill="black" stroke="#222222" stroke-width="3"/>
<rect x="218" y="314" width="16" height="16" fill="black" stroke="#222222" stroke-width="3"/>
<rect x="234" y="314" width="16" height="16" fill="#CCCCCC" stroke="#222222" stroke-width="3"/>
<rect x="250" y="314" width="16" height="16" fill="white" stroke="#222222" stroke-width="3"/>
<rect x="266" y="314" width="16" height="16" fill="black" stroke="#222222" stroke-width="3"/>
<rect x="282" y="314" width="16" height="16" fill="black" stroke="#222222" stroke-width="3"/>
<rect x="298" y="314" width="16" height="16" fill="black" stroke="#222222" stroke-width="3"/>
<rect x="314" y="314" width="16" height="16" fill="white" stroke="#222222" stroke-width="3"/>
<rect x="330" y="314" width="16" height="16" fill="#CCCCCC" stroke="#222222" stroke-width="3"/>
<rect x="346" y="314" width="16" height="16" fill="#777777" stroke="#222222" stroke-width="3"/>
<rect x="362" y="314" width="16" height="16" fill="#222222" stroke="#222222" stroke-width="3"/>
<rect x="58" y="330" width="16" height="16" fill="#222222" stroke="#222222" stroke-width="3"/>
<rect x="42" y="330" width="16" height="16" fill="#222222" stroke="#222222" stroke-width="3"/>
<rect x="74" y="330" width="16" height="16" fill="#777777" stroke="#222222" stroke-width="3"/>
<rect x="90" y="330" width="16" height="16" fill="white" stroke="#222222" stroke-width="3"/>
<rect x="106" y="330" width="16" height="16" fill="black" stroke="#222222" stroke-width="3"/>
<rect x="122" y="330" width="16" height="16" fill="#AAAAAA" stroke="#222222" stroke-width="3"/>
<rect x="138" y="330" width="16" height="16" fill="black" stroke="#222222" stroke-width="3"/>
<rect x="154" y="330" width="16" height="16" fill="white" stroke="#222222" stroke-width="3"/>
<rect x="170" y="330" width="16" height="16" fill="white" stroke="#222222" stroke-width="3"/>
<rect x="186" y="330" width="16" height="16" fill="black" stroke="#222222" stroke-width="3"/>
<rect x="202" y="330" width="16" height="16" fill="black" stroke="#222222" stroke-width="3"/>
<rect x="218" y="330" width="16" height="16" fill="black" stroke="#222222" stroke-width="3"/>
<rect x="234" y="330" width="16" height="16" fill="white" stroke="#222222" stroke-width="3"/>
<rect x="250" y="330" width="16" height="16" fill="white" stroke="#222222" stroke-width="3"/>
<rect x="266" y="330" width="16" height="16" fill="black" stroke="#222222" stroke-width="3"/>
<rect x="282" y="330" width="16" height="16" fill="#AAAAAA" stroke="#222222" stroke-width="3"/>
<rect x="298" y="330" width="16" height="16" fill="black" stroke="#222222" stroke-width="3"/>
<rect x="314" y="330" width="16" height="16" fill="white" stroke="#222222" stroke-width="3"/>
<rect x="330" y="330" width="16" height="16" fill="#777777" stroke="#222222" stroke-width="3"/>
<rect x="346" y="330" width="16" height="16" fill="#222222" stroke="#222222" stroke-width="3"/>
<rect x="362" y="330" width="16" height="16" fill="#222222" stroke="#222222" stroke-width="3"/>
<rect x="58" y="346" width="16" height="16" fill="#222222" stroke="#222222" stroke-width="3"/>
<rect x="42" y="346" width="16" height="16" fill="#222222" stroke="#222222" stroke-width="3"/>
<rect x="74" y="346" width="16" height="16" fill="#222222" stroke="#222222" stroke-width="3"/>
<rect x="90" y="346" width="16" height="16" fill="#777777" stroke="#222222" stroke-width="3"/>
<rect x="106" y="346" width="16" height="16" fill="white" stroke="#222222" stroke-width="3"/>
<rect x="122" y="346" width="16" height="16" fill="white" stroke="#222222" stroke-width="3"/>
<rect x="138" y="346" width="16" height="16" fill="white" stroke="#222222" stroke-width="3"/>
<rect x="154" y="346" width="16" height="16" fill="white" stroke="#222222" stroke-width="3"/>
<rect x="170" y="346" width="16" height="16" fill="#777777" stroke="#222222" stroke-width="3"/>
<rect x="186" y="346" width="16" height="16" fill="#777777" stroke="#222222" stroke-width="3"/>
<rect x="202" y="346" width="16" height="16" fill="#777777" stroke="#222222" stroke-width="3"/>
<rect x="218" y="346" width="16" height="16" fill="#777777" stroke="#222222" stroke-width="3"/>
<rect x="234" y="346" width="16" height="16" fill="#777777" stroke="#222222" stroke-width="3"/>
<rect x="250" y="346" width="16" height="16" fill="white" stroke="#222222" stroke-width="3"/>
<rect x="266" y="346" width="16" height="16" fill="white" stroke="#222222" stroke-width="3"/>
<rect x="282" y="346" width="16" height="16" fill="white" stroke="#222222" stroke-width="3"/>
<rect x="298" y="346" width="16" height="16" fill="white" stroke="#222222" stroke-width="3"/>
<rect x="314" y="346" width="16" height="16" fill="#777777" stroke="#222222" stroke-width="3"/>
<rect x="330" y="346" width="16" height="16" fill="#222222" stroke="#222222" stroke-width="3"/>
<rect x="346" y="346" width="16" height="16" fill="#222222" stroke="#222222" stroke-width="3"/>
<rect x="362" y="346" width="16" height="16" fill="#222222" stroke="#222222" stroke-width="3"/>
<rect x="58" y="362" width="16" height="16" fill="#222222" stroke="#222222" stroke-width="3"/>
<rect x="42" y="362" width="16" height="16" fill="#222222" stroke="#222222" stroke-width="3"/>
<rect x="74" y="362" width="16" height="16" fill="#222222" stroke="#222222" stroke-width="3"/>
<rect x="90" y="362" width="16" height="16" fill="#222222" stroke="#222222" stroke-width="3"/>
<rect x="106" y="362" width="16" height="16" fill="#777777" stroke="#222222" stroke-width="3"/>
<rect x="122" y="362" width="16" height="16" fill="#777777" stroke="#222222" stroke-width="3"/>
<rect x="138" y="362" width="16" height="16" fill="#777777" stroke="#222222" stroke-width="3"/>
<rect x="154" y="362" width="16" height="16" fill="#777777" stroke="#222222" stroke-width="3"/>
<rect x="170" y="362" width="16" height="16" fill="#222222" stroke="#222222" stroke-width="3"/>
<rect x="186" y="362" width="16" height="16" fill="#222222" stroke="#222222" stroke-width="3"/>
<rect x="202" y="362" width="16" height="16" fill="#222222" stroke="#222222" stroke-width="3"/>
<rect x="218" y="362" width="16" height="16" fill="#222222" stroke="#222222" stroke-width="3"/>
<rect x="234" y="362" width="16" height="16" fill="#222222" stroke="#222222" stroke-width="3"/>
<rect x="250" y="362" width="16" height="16" fill="#777777" stroke="#222222" stroke-width="3"/>
<rect x="266" y="362" width="16" height="16" fill="#777777" stroke="#222222" stroke-width="3"/>
<rect x="282" y="362" width="16" height="16" fill="#777777" stroke="#222222" stroke-width="3"/>
<rect x="298" y="362" width="16" height="16" fill="#777777" stroke="#222222" stroke-width="3"/>
<rect x="314" y="362" width="16" height="16" fill="#222222" stroke="#222222" stroke-width="3"/>
<rect x="330" y="362" width="16" height="16" fill="#222222" stroke="#222222" stroke-width="3"/>
<rect x="346" y="362" width="16" height="16" fill="#222222" stroke="#222222" stroke-width="3"/>
<rect x="362" y="362" width="16" height="16" fill="#222222" stroke="#222222" stroke-width="3"/>
</svg>
