<svg fill="none" height="256" viewBox="0 0 256 256" width="256" xmlns="http://www.w3.org/2000/svg" xmlns:xlink="http://www.w3.org/1999/xlink"><filter id="a" color-interpolation-filters="sRGB" filterUnits="userSpaceOnUse" height="22.75" width="21" x="214.5" y="138.5"><feFlood flood-opacity="0" result="BackgroundImageFix"/><feColorMatrix in="SourceAlpha" type="matrix" values="0 0 0 0 0 0 0 0 0 0 0 0 0 0 0 0 0 0 127 0"/><feOffset/><feGaussianBlur stdDeviation=".5"/><feColorMatrix type="matrix" values="0 0 0 0 0 0 0 0 0 0 0 0 0 0 0 0 0 0 1 0"/><feBlend in2="BackgroundImageFix" mode="normal" result="effect1_dropShadow"/><feBlend in="SourceGraphic" in2="effect1_dropShadow" mode="normal" result="shape"/></filter><linearGradient id="b"><stop offset="0" stop-color="#555"/><stop offset="1" stop-opacity=".25"/></linearGradient><linearGradient id="c" gradientUnits="userSpaceOnUse" x1="207" x2="210.75" xlink:href="#b" y1="177" y2="177"/><linearGradient id="d" gradientUnits="userSpaceOnUse" x1="193" x2="196.75" xlink:href="#b" y1="177" y2="177"/><linearGradient id="e"><stop offset="0" stop-color="#faedd9"/><stop offset="1" stop-color="#cbb89d"/></linearGradient><linearGradient id="f" gradientUnits="userSpaceOnUse" x1="44" x2="44" xlink:href="#e" y1="123" y2="143"/><linearGradient id="g" gradientUnits="userSpaceOnUse" x1="29" x2="29" xlink:href="#e" y1="101" y2="121"/><linearGradient id="h" gradientUnits="userSpaceOnUse" x1="59" x2="59" xlink:href="#e" y1="101" y2="121"/><linearGradient id="i" gradientUnits="userSpaceOnUse" x1="215" x2="215" xlink:href="#e" y1="82" y2="102"/><linearGradient id="j" gradientUnits="userSpaceOnUse" x1="199" x2="199" xlink:href="#e" y1="118" y2="138"/><linearGradient id="k" gradientUnits="userSpaceOnUse" x1="44" x2="44" xlink:href="#e" y1="79" y2="99"/><mask id="l" fill="#fff"><path clip-rule="evenodd" d="m36 75c-11.0457 0-20 8.9543-20 20v66c0 11.046 8.9543 20 20 20h184c11.046 0 20-8.954 20-20v-66c0-11.0457-8.954-20-20-20zm157 12c2.209 0 4-1.7909 4-4s-1.791-4-4-4-4 1.7909-4 4 1.791 4 4 4zm-126-4c0 2.2091-1.7909 4-4 4s-4-1.7909-4-4 1.7909-4 4-4 4 1.7909 4 4zm-40 10c2.2091 0 4-1.7909 4-4s-1.7909-4-4-4-4 1.7909-4 4 1.7909 4 4 4zm4 38c0 2.209-1.7909 4-4 4s-4-1.791-4-4 1.7909-4 4-4 4 1.791 4 4zm-4 40c2.2091 0 4-1.791 4-4s-1.7909-4-4-4-4 1.791-4 4 1.7909 4 4 4zm205-40c0 2.209-1.791 4-4 4s-4-1.791-4-4 1.791-4 4-4 4 1.791 4 4zm-4 40c2.209 0 4-1.791 4-4s-1.791-4-4-4-4 1.791-4 4 1.791 4 4 4z" fill="#fff" fill-rule="evenodd"/></mask><path d="m0 0h256v256h-256z" fill="#222"/><path clip-rule="evenodd" d="m36 75c-11.0457 0-20 8.9543-20 20v66c0 11.046 8.9543 20 20 20h184c11.046 0 20-8.954 20-20v-66c0-11.0457-8.954-20-20-20zm157 12c2.209 0 4-1.7909 4-4s-1.791-4-4-4-4 1.7909-4 4 1.791 4 4 4zm-126-4c0 2.2091-1.7909 4-4 4s-4-1.7909-4-4 1.7909-4 4-4 4 1.7909 4 4zm-40 10c2.2091 0 4-1.7909 4-4s-1.7909-4-4-4-4 1.7909-4 4 1.7909 4 4 4zm4 38c0 2.209-1.7909 4-4 4s-4-1.791-4-4 1.7909-4 4-4 4 1.791 4 4zm-4 40c2.2091 0 4-1.791 4-4s-1.7909-4-4-4-4 1.791-4 4 1.7909 4 4 4zm205-40c0 2.209-1.791 4-4 4s-4-1.791-4-4 1.791-4 4-4 4 1.791 4 4zm-4 40c2.209 0 4-1.791 4-4s-1.791-4-4-4-4 1.791-4 4 1.791 4 4 4z" fill="#df2020" fill-rule="evenodd"/><path d="m19 95c0-9.3888 7.6112-17 17-17v-6c-12.7025 0-23 10.2974-23 23zm0 66v-66h-6v66zm17 17c-9.3888 0-17-7.611-17-17h-6c0 12.703 10.2975 23 23 23zm184 0h-184v6h184zm17-17c0 9.389-7.611 17-17 17v6c12.703 0 23-10.297 23-23zm0-66v66h6v-66zm-17-17c9.389 0 17 7.6112 17 17h6c0-12.7025-10.297-23-23-23zm-184 0h184v-6h-184zm158 5c0 .5523-.448 1-1 1v6c3.866 0 7-3.134 7-7zm-1-1c.552 0 1 .4477 1 1h6c0-3.866-3.134-7-7-7zm-1 1c0-.5523.448-1 1-1v-6c-3.866 0-7 3.134-7 7zm1 1c-.552 0-1-.4477-1-1h-6c0 3.866 3.134 7 7 7zm-130 6c3.866 0 7-3.134 7-7h-6c0 .5523-.4477 1-1 1zm-7-7c0 3.866 3.134 7 7 7v-6c-.5523 0-1-.4477-1-1zm7-7c-3.866 0-7 3.134-7 7h6c0-.5523.4477-1 1-1zm7 7c0-3.866-3.134-7-7-7v6c.5523 0 1 .4477 1 1zm-42 6c0 .5523-.4477 1-1 1v6c3.866 0 7-3.134 7-7zm-1-1c.5523 0 1 .4477 1 1h6c0-3.866-3.134-7-7-7zm-1 1c0-.5523.4477-1 1-1v-6c-3.866 0-7 3.134-7 7zm1 1c-.5523 0-1-.4477-1-1h-6c0 3.866 3.134 7 7 7zm0 48c3.866 0 7-3.134 7-7h-6c0 .552-.4477 1-1 1zm-7-7c0 3.866 3.134 7 7 7v-6c-.5523 0-1-.448-1-1zm7-7c-3.866 0-7 3.134-7 7h6c0-.552.4477-1 1-1zm7 7c0-3.866-3.134-7-7-7v6c.5523 0 1 .448 1 1zm-6 36c0 .552-.4477 1-1 1v6c3.866 0 7-3.134 7-7zm-1-1c.5523 0 1 .448 1 1h6c0-3.866-3.134-7-7-7zm-1 1c0-.552.4477-1 1-1v-6c-3.866 0-7 3.134-7 7zm1 1c-.5523 0-1-.448-1-1h-6c0 3.866 3.134 7 7 7zm201-30c3.866 0 7-3.134 7-7h-6c0 .552-.448 1-1 1zm-7-7c0 3.866 3.134 7 7 7v-6c-.552 0-1-.448-1-1zm7-7c-3.866 0-7 3.134-7 7h6c0-.552.448-1 1-1zm7 7c0-3.866-3.134-7-7-7v6c.552 0 1 .448 1 1zm-6 36c0 .552-.448 1-1 1v6c3.866 0 7-3.134 7-7zm-1-1c.552 0 1 .448 1 1h6c0-3.866-3.134-7-7-7zm-1 1c0-.552.448-1 1-1v-6c-3.866 0-7 3.134-7 7zm1 1c-.552 0-1-.448-1-1h-6c0 3.866 3.134 7 7 7z" fill="#701010" mask="url(#l)"/><path clip-rule="evenodd" d="m193 89c3.314 0 6-2.6863 6-6s-2.686-6-6-6-6 2.6863-6 6 2.686 6 6 6zm0-2c2.209 0 4-1.7909 4-4s-1.791-4-4-4-4 1.7909-4 4 1.791 4 4 4z" fill="#ffc886" fill-rule="evenodd"/><path clip-rule="evenodd" d="m63 89c3.3137 0 6-2.6863 6-6s-2.6863-6-6-6-6 2.6863-6 6 2.6863 6 6 6zm0-2c2.2091 0 4-1.7909 4-4s-1.7909-4-4-4-4 1.7909-4 4 1.7909 4 4 4z" fill="#ffc886" fill-rule="evenodd"/><path clip-rule="evenodd" d="m27 95c3.3137 0 6-2.6863 6-6s-2.6863-6-6-6-6 2.6863-6 6 2.6863 6 6 6zm0-2c2.2091 0 4-1.7909 4-4s-1.7909-4-4-4-4 1.7909-4 4 1.7909 4 4 4z" fill="#ffc886" fill-rule="evenodd"/><path clip-rule="evenodd" d="m27 137c3.3137 0 6-2.686 6-6s-2.6863-6-6-6-6 2.686-6 6 2.6863 6 6 6zm0-2c2.2091 0 4-1.791 4-4s-1.7909-4-4-4-4 1.791-4 4 1.7909 4 4 4z" fill="#ffc886" fill-rule="evenodd"/><path clip-rule="evenodd" d="m27 173c3.3137 0 6-2.686 6-6s-2.6863-6-6-6-6 2.686-6 6 2.6863 6 6 6zm0-2c2.2091 0 4-1.791 4-4s-1.7909-4-4-4-4 1.791-4 4 1.7909 4 4 4z" fill="#ffc886" fill-rule="evenodd"/><path clip-rule="evenodd" d="m228 137c3.314 0 6-2.686 6-6s-2.686-6-6-6-6 2.686-6 6 2.686 6 6 6zm0-2c2.209 0 4-1.791 4-4s-1.791-4-4-4-4 1.791-4 4 1.791 4 4 4z" fill="#ffc886" fill-rule="evenodd"/><path clip-rule="evenodd" d="m228 173c3.314 0 6-2.686 6-6s-2.686-6-6-6-6 2.686-6 6 2.686 6 6 6zm0-2c2.209 0 4-1.791 4-4s-1.791-4-4-4-4 1.791-4 4 1.791 4 4 4z" fill="#ffc886" fill-rule="evenodd"/><rect fill="#dcc5a9" height="8" rx="1" stroke="#000" stroke-width=".25" width="16" x="44" y="167"/><path d="m54 175h4v4h-4z" fill="#cc9a5d" stroke="#000" stroke-width=".25"/><path d="m38.0296 175.244h.666c.372 0 .558.176.558.528v2.7c0 .352-.186.528-.558.528h-.666c-.376 0-.564-.176-.564-.528v-2.7c0-.352.188-.528.564-.528zm.684 3.144v-2.532c0-.072-.012-.118-.036-.138-.024-.024-.072-.036-.144-.036h-.348c-.072 0-.12.012-.144.036-.02.02-.03.066-.03.138v2.532c0 .072.01.12.03.144.024.02.072.03.144.03h.348c.072 0 .12-.01.144-.03.024-.024.036-.072.036-.144zm2.4755-3.144h.498v3.756h-.546l-.792-2.712v2.712h-.498v-3.756h.57l.768 2.634z" fill="#fff" fill-opacity=".75"/><path d="m62.846 175.244h.666c.372 0 .558.176.558.528v2.7c0 .352-.186.528-.558.528h-.666c-.376 0-.564-.176-.564-.528v-2.7c0-.352.188-.528.564-.528zm.684 3.144v-2.532c0-.072-.012-.118-.036-.138-.024-.024-.072-.036-.144-.036h-.348c-.072 0-.12.012-.144.036-.02.02-.03.066-.03.138v2.532c0 .072.01.12.03.144.024.02.072.03.144.03h.348c.072 0 .12-.01.144-.03.024-.024.036-.072.036-.144zm2.7755-2.706h-1.092v1.236h.864v.426h-.864v1.656h-.546v-3.756h1.638zm1.9922 0h-1.092v1.236h.864v.426h-.864v1.656h-.546v-3.756h1.638z" fill="#fff" fill-opacity=".75"/><path d="m73 73h109.696v109.696h-109.696z" fill="#000"/><g fill="#ccba9f"><path d="m74.2609 74.2609h10.087v10.087h-10.087z"/><path d="m88.1306 74.2609h10.087v10.087h-10.087z"/><path d="m102 74.2609h10.087v10.087h-10.087z"/><path d="m115.87 74.2609h10.087v10.087h-10.087z"/><path d="m129.739 74.2609h10.087v10.087h-10.087z"/><path d="m143.609 74.2609h10.087v10.087h-10.087z"/><path d="m157.478 74.2609h10.087v10.087h-10.087z"/><path d="m171.348 74.2609h10.087v10.087h-10.087z"/><path d="m74.2609 88.1304h10.087v10.087h-10.087z"/><path d="m88.1306 88.1304h10.087v10.087h-10.087z"/><path d="m157.478 88.1304h10.087v10.087h-10.087z"/><path d="m171.348 88.1304h10.087v10.087h-10.087z"/><path d="m74.2609 102h10.087v10.087h-10.087z"/><path d="m102 102h10.087v10.087h-10.087z"/><path d="m129.739 102h10.087v10.087h-10.087z"/><path d="m171.348 102h10.087v10.087h-10.087z"/><path d="m74.2609 115.87h10.087v10.087h-10.087z"/><path d="m102 115.87h10.087v10.087h-10.087z"/><path d="m129.739 115.87h10.087v10.087h-10.087z"/><path d="m171.348 115.87h10.087v10.087h-10.087z"/><path d="m74.2609 129.739h10.087v10.087h-10.087z"/><path d="m102 129.739h10.087v10.087h-10.087z"/><path d="m129.739 129.739h10.087v10.087h-10.087z"/><path d="m171.348 129.739h10.087v10.087h-10.087z"/><path d="m74.2609 143.609h10.087v10.087h-10.087z"/><path d="m171.348 143.609h10.087v10.087h-10.087z"/><path d="m74.2609 157.478h10.087v10.087h-10.087z"/><path d="m88.1306 157.478h10.087v10.087h-10.087z"/><path d="m157.478 157.478h10.087v10.087h-10.087z"/><path d="m171.348 157.478h10.087v10.087h-10.087z"/><path d="m74.2609 171.348h10.087v10.087h-10.087z"/><path d="m88.1306 171.348h10.087v10.087h-10.087z"/><path d="m102 171.348h10.087v10.087h-10.087z"/><path d="m115.87 171.348h10.087v10.087h-10.087z"/><path d="m129.739 171.348h10.087v10.087h-10.087z"/><path d="m143.609 171.348h10.087v10.087h-10.087z"/><path d="m157.478 171.348h10.087v10.087h-10.087z"/><path d="m171.348 171.348h10.087v10.087h-10.087z"/></g><path d="m102 88.1304h10.087v10.087h-10.087z" fill="#13ff8e"/><path d="m115.87 88.1304h10.087v10.087h-10.087z" fill="#13ff8e"/><path d="m129.739 88.1304h10.087v10.087h-10.087z" fill="#13ff8e"/><path d="m143.609 88.1304h10.087v10.087h-10.087z" fill="#13ff8e"/><path d="m88.1306 102h10.087v10.087h-10.087z" fill="#13ff8e"/><path d="m115.87 102h10.087v10.087h-10.087z" fill="#13ff8e"/><path d="m143.609 102h10.087v10.087h-10.087z" fill="#13ff8e"/><path d="m157.478 102h10.087v10.087h-10.087z" fill="#13ff8e"/><path d="m88.1306 115.87h10.087v10.087h-10.087z" fill="#13ff8e"/><path d="m115.87 115.87h10.087v10.087h-10.087z" fill="#13ff8e"/><path d="m143.609 115.87h10.087v10.087h-10.087z" fill="#13ff8e"/><path d="m157.478 115.87h10.087v10.087h-10.087z" fill="#13ff8e"/><path d="m88.1306 129.739h10.087v10.087h-10.087z" fill="#13ff8e"/><path d="m115.87 129.739h10.087v10.087h-10.087z" fill="#13ff8e"/><path d="m143.609 129.739h10.087v10.087h-10.087z" fill="#13ff8e"/><path d="m157.478 129.739h10.087v10.087h-10.087z" fill="#13ff8e"/><path d="m88.1306 143.609h10.087v10.087h-10.087z" fill="#13ff8e"/><path d="m102 143.609h10.087v10.087h-10.087z" fill="#13ff8e"/><path d="m115.87 143.609h10.087v10.087h-10.087z" fill="#13ff8e"/><path d="m129.739 143.609h10.087v10.087h-10.087z" fill="#13ff8e"/><path d="m143.609 143.609h10.087v10.087h-10.087z" fill="#13ff8e"/><path d="m157.478 143.609h10.087v10.087h-10.087z" fill="#13ff8e"/><path d="m102 157.478h10.087v10.087h-10.087z" fill="#13ff8e"/><path d="m115.87 157.478h10.087v10.087h-10.087z" fill="#13ff8e"/><path d="m129.739 157.478h10.087v10.087h-10.087z" fill="#13ff8e"/><path d="m143.609 157.478h10.087v10.087h-10.087z" fill="#13ff8e"/><path clip-rule="evenodd" d="m208 169c.552 0 1 .448 1 1v12c0 .552-.448 1-1 1h-18c-.552 0-1-.448-1-1v-12c0-.552.448-1 1-1h3v1h1v-1h10v1h1v-1z" fill="#dcc5a9" fill-rule="evenodd"/><path d="m193 169h.125v-.125h-.125zm0 1h-.125v.125h.125zm1 0v.125h.125v-.125zm0-1v-.125h-.125v.125zm10 0h.125v-.125h-.125zm0 1h-.125v.125h.125zm1 0v.125h.125v-.125zm0-1v-.125h-.125v.125zm4.125 1c0-.621-.504-1.125-1.125-1.125v.25c.483 0 .875.392.875.875zm0 12v-12h-.25v12zm-1.125 1.125c.621 0 1.125-.504 1.125-1.125h-.25c0 .483-.392.875-.875.875zm-18 0h18v-.25h-18zm-1.125-1.125c0 .621.504 1.125 1.125 1.125v-.25c-.483 0-.875-.392-.875-.875zm0-12v12h.25v-12zm1.125-1.125c-.621 0-1.125.504-1.125 1.125h.25c0-.483.392-.875.875-.875zm3 0h-3v.25h3zm.125 1.125v-1h-.25v1zm.875-.125h-1v.25h1zm-.125-.875v1h.25v-1zm10.125-.125h-10v.25h10zm.125 1.125v-1h-.25v1zm.875-.125h-1v.25h1zm-.125-.875v1h.25v-1zm3.125-.125h-3v.25h3z" fill="#000"/><path d="m207 176h5v2h-5z" fill="url(#c)" transform="matrix(0 1 -1 0 383 -31)"/><path d="m193 176h5v2h-5z" fill="url(#d)" transform="matrix(0 1 -1 0 369 -17)"/><path d="m29.2485 148.771 1.9721-.56c.5964-.169.9747.028 1.1349.593l.5681 2.001c.1602.564-.0579.931-.6544 1.1l-1.1063.314.6609 2.328-.8658.246zm2.771 2.145-.4915-1.732c-.0328-.115-.073-.184-.1206-.205-.0494-.027-.1318-.025-.2472.008l-.8466.24.6527 2.299.8466-.24c.1154-.033.1869-.074.2145-.123.0275-.05.0249-.132-.0079-.247zm2.0399-2.076.9428-.268c.6028-.171.9853.029 1.1473.599l.4998 1.761-1.8952.538.3168 1.116c.031.109.0711.177.1205.205.0494.027.1319.025.2473-.008l.4425-.126c.1155-.033.187-.074.2145-.123.0276-.049.025-.132-.0078-.247l-.1092-.385.8465-.24.1447.509c.1603.565-.0579.932-.6543 1.101l-.9235.262c-.5964.169-.9748-.028-1.135-.592l-.8493-2.992c-.162-.571.0552-.941.6516-1.11zm.5145 1.995 1.0389-.295-.2894-1.02c-.031-.109-.0711-.177-.1205-.205-.043-.029-.1223-.027-.2377.006l-.4714.133c-.1154.033-.1869.074-.2145.124-.0275.049-.0258.128.0051.237zm6.0112-3.848.8177-.232.4669 4.94-1.1448.325-1.5656-3.391.4497 3.708-1.1448.325-2.1888-4.451.8177-.233 1.7477 3.777-.5164-4.126 1.0294-.292 1.7092 3.787z" fill="#fff" fill-opacity=".75"/><path d="m38.0115 155.479 2.0287-.294c.6135-.09.9625.156 1.0469.737l.2992 2.058c.0843.581-.1803.915-.7938 1.005l-1.138.165.348 2.395-.8906.129zm2.464 2.492-.2589-1.781c-.0173-.119-.0481-.192-.0925-.219-.0453-.034-.1274-.043-.2461-.025l-.8709.126.3438 2.365.8708-.126c.1188-.017.1951-.049.2289-.094s.0421-.127.0249-.246zm2.2958-1.789.9699-.141c.6201-.09.9729.158 1.0582.746l.2632 1.811-1.9495.283.1668 1.148c.0163.112.0472.185.0925.219s.1274.042.2461.025l.4553-.066c.1187-.018.195-.049.2288-.094.0339-.046.0421-.128.0249-.246l-.0575-.396.8708-.127.0762.525c.0844.58-.1802.915-.7937 1.004l-.95.138c-.6136.089-.9626-.156-1.0469-.737l-.4474-3.077c-.0853-.588.1788-.926.7923-1.015zm.2469 2.046 1.0687-.156-.1524-1.049c-.0163-.112-.0471-.185-.0925-.218-.0387-.035-.1175-.044-.2362-.027l-.4849.071c-.1188.017-.1951.048-.2289.094-.0338.045-.0426.124-.0263.236zm6.4661-3.022.8412-.122-.1887 4.959-1.1777.171-1.1047-3.568-.0432 3.735-1.1776.171-1.5827-4.701.8412-.123 1.2344 3.974.0323-4.158 1.0588-.154 1.1949 3.98z" fill="#fff" fill-opacity=".75"/><path d="m59.2591 148.183-.1319 3.333 1.1446-3.135.7065.139-1.4579 3.692-1.0127-.198.0448-3.97zm3.4027-.458-.9638 4.915-.7144-.141.8514-4.341-.5652-.111.1124-.573zm1.5825 4.582.6498-3.313c.0184-.094.0145-.157-.0117-.189-.0253-.038-.085-.066-.1792-.084l-.4239-.083c-.0942-.019-.1601-.016-.1977.01-.0313.021-.0562.078-.0746.173l-.6498 3.312c-.0184.095-.0177.16.0023.197.0263.032.0866.057.1808.076l.4239.083c.0942.018.1596.018.1961-.002.0376-.026.0656-.085.084-.18zm1.3857-3.282-.6928 3.532c-.0903.461-.3789.644-.8656.548l-.8557-.168c-.492-.096-.6928-.375-.6025-.835l.6929-3.533c.0903-.461.3814-.643.8734-.546l.8557.168c.4867.095.6849.373.5946.834zm-.2109 4.344.1894-.965.7929.155-.1894.966zm2.754-3.731-.157.8-.7066-.138.1786-.911c.0903-.46.3789-.643.8656-.548l.6751.133c.492.096.6928.375.6025.835l-.097.495c-.0719.366-.2338.707-.4857 1.022l-1.4678 1.872 1.366.268-.1124.573-2.1668-.425.1078-.549 1.6446-2.026c.2009-.248.3357-.548.4045-.899l.0708-.361c.0185-.094.0146-.157-.0117-.19-.02-.036-.0797-.064-.1791-.084l-.2512-.049c-.0942-.018-.1601-.015-.1977.01-.0365.02-.064.077-.0825.172z" fill="#fff" fill-opacity=".75"/><path d="m195.516 112.492 1.363-2.18h.883l-1.797 2.821 1.84 2.867h-.891l-1.398-2.219-1.407 2.219h-.886l1.843-2.867-1.8-2.821h.879z" fill="#fff" fill-opacity=".75"/><path d="m220.035 107.34c0 .557-.094 1.044-.281 1.461-.188.414-.453.73-.797.949s-.745.328-1.203.328c-.448 0-.845-.109-1.192-.328-.346-.221-.615-.535-.808-.941-.19-.409-.288-.882-.293-1.418v-.411c0-.546.095-1.029.285-1.449.19-.419.458-.739.805-.961.349-.224.747-.336 1.195-.336.456 0 .857.111 1.203.332.349.219.617.538.805.957.187.417.281.903.281 1.457zm-.746-.367c0-.675-.135-1.192-.406-1.551-.271-.362-.65-.543-1.137-.543-.474 0-.848.181-1.121.543-.271.359-.41.859-.418 1.5v.418c0 .653.137 1.168.41 1.543.276.372.655.558 1.137.558.484 0 .859-.175 1.125-.527.266-.354.402-.861.41-1.519z" fill="#fff" fill-opacity=".75"/><g filter="url(#a)"><rect fill="#f20000" fill-opacity=".5" height="18" rx="3" stroke="#d68b8b" width="18" x="216" y="140"/><rect fill="#d68b8b" height="12.375" rx="2" width="12.375" x="217.125" y="144.5"/><rect fill="#7a0001" height="4.5" rx=".5" width="1.28572" x="220.5" y="146.75"/><rect fill="#7a0001" height="4.5" rx=".5" width="1.28571" x="224.036" y="146.75"/><g fill="#d68b8b"><path d="m219.375 158h2.25v1.25c0 .552-.448 1-1 1h-.25c-.552 0-1-.448-1-1z"/><path d="m222.75 158h2.25v1.25c0 .552-.448 1-1 1h-.25c-.552 0-1-.448-1-1z"/><path d="m226.125 158h2.25v1.25c0 .552-.448 1-1 1h-.25c-.552 0-1-.448-1-1z"/><path d="m229.5 158h2.25v1.25c0 .552-.448 1-1 1h-.25c-.552 0-1-.448-1-1z"/></g></g><rect fill="url(#f)" height="20" rx="2" width="20" x="34" y="123"/><ellipse cx="36.8572" cy="140.143" fill="#000" rx="1.42857" ry="1.42857"/><circle cx="51.1428" cy="140.143" fill="#000" r="1.42857"/><circle cx="36.8572" cy="125.857" fill="#000" r="1.42857"/><ellipse cx="51.1428" cy="125.857" fill="#000" rx="1.42857" ry="1.42857"/><circle cx="44" cy="133" fill="#0df20d" r="5.5" stroke="#40bf40"/><rect fill="url(#g)" height="20" rx="2" width="20" x="19" y="101"/><ellipse cx="21.8572" cy="118.143" fill="#000" rx="1.42857" ry="1.42857"/><circle cx="36.1428" cy="118.143" fill="#000" r="1.42857"/><circle cx="21.8572" cy="103.857" fill="#000" r="1.42857"/><ellipse cx="36.1428" cy="103.857" fill="#000" rx="1.42857" ry="1.42857"/><circle cx="29" cy="111" fill="#0df20d" r="5.5" stroke="#40bf40"/><rect fill="url(#h)" height="20" rx="2" width="20" x="49" y="101"/><ellipse cx="51.8572" cy="118.143" fill="#000" rx="1.42857" ry="1.42857"/><circle cx="66.1428" cy="118.143" fill="#000" r="1.42857"/><circle cx="51.8572" cy="103.857" fill="#000" r="1.42857"/><ellipse cx="66.1428" cy="103.857" fill="#000" rx="1.42857" ry="1.42857"/><circle cx="59" cy="111" fill="#0df20d" r="5.5" stroke="#40bf40"/><rect fill="url(#i)" height="20" rx="2" width="20" x="205" y="82"/><ellipse cx="207.857" cy="99.1429" fill="#000" rx="1.42857" ry="1.42857"/><circle cx="222.143" cy="99.1429" fill="#000" r="1.42857"/><circle cx="207.857" cy="84.8572" fill="#000" r="1.42857"/><ellipse cx="222.143" cy="84.8572" fill="#000" rx="1.42857" ry="1.42857"/><circle cx="215" cy="92" fill="#0df20d" r="5.5" stroke="#40bf40"/><rect fill="url(#j)" height="20" rx="2" width="20" x="189" y="118"/><ellipse cx="191.857" cy="135.143" fill="#000" rx="1.42857" ry="1.42857"/><circle cx="206.143" cy="135.143" fill="#000" r="1.42857"/><circle cx="191.857" cy="120.857" fill="#000" r="1.42857"/><ellipse cx="206.143" cy="120.857" fill="#000" rx="1.42857" ry="1.42857"/><circle cx="199" cy="128" fill="#0df20d" r="5.5" stroke="#40bf40"/><rect fill="url(#k)" height="20" rx="2" width="20" x="34" y="79"/><ellipse cx="36.8572" cy="96.1429" fill="#000" rx="1.42857" ry="1.42857"/><circle cx="51.1428" cy="96.1429" fill="#000" r="1.42857"/><circle cx="36.8572" cy="81.8572" fill="#000" r="1.42857"/><ellipse cx="51.1428" cy="81.8572" fill="#000" rx="1.42857" ry="1.42857"/><circle cx="44" cy="89" fill="#0df20d" r="5.5" stroke="#40bf40"/></svg>