<svg clip-rule="evenodd" fill-rule="evenodd" stroke-linejoin="round" stroke-miterlimit="2" viewBox="0 0 256 256" xmlns="http://www.w3.org/2000/svg" xmlns:xlink="http://www.w3.org/1999/xlink"><linearGradient id="a"><stop offset="0" stop-color="#08c"/><stop offset="1" stop-color="#ceefff"/></linearGradient><linearGradient id="b" gradientTransform="matrix(0 66.0002 -66.0002 0 128 32)" gradientUnits="userSpaceOnUse" x1="0" x2="1" xlink:href="#a" y1="0" y2="0"/><linearGradient id="c" gradientTransform="matrix(0 35.9491 -35.9491 0 128 83.051)" gradientUnits="userSpaceOnUse" x1="0" x2="1" xlink:href="#a" y1="0" y2="0"/><linearGradient id="d" gradientTransform="matrix(0 95.9998 -95.9998 0 128 128)" gradientUnits="userSpaceOnUse" x1="0" x2="1" y1="0" y2="0"><stop offset="0" stop-color="#08c"/><stop offset="1" stop-color="#069"/></linearGradient><path d="m0 0h256v256h-256z" fill="#202020"/><circle cx="128" cy="65" fill="url(#b)" r="33"/><path d="m90.066 83.051c-18.983 1.005-34.066 16.716-34.066 35.949h144c0-19.233-15.083-34.944-34.066-35.949-6.751 14.162-21.2 23.949-37.934 23.949s-31.183-9.787-37.934-23.949z" fill="url(#c)"/><path d="m33.998 138.659c-1.038-5.539 3.211-10.659 8.846-10.659h170.312c5.635 0 9.884 5.12 8.846 10.659l-14.625 78c-.799 4.256-4.515 7.341-8.846 7.341h-141.062c-4.331 0-8.048-3.085-8.846-7.341z" fill="url(#d)" fill-rule="nonzero"/><ellipse cx="127.852" cy="175.7" fill="#fff" rx="14.852" ry="11.7"/></svg>